<?xml version="1.0" encoding="UTF-8"?>
<svg xmlns="http://www.w3.org/2000/svg" version="1.1" viewBox="0 0 360 198.8">
  <!-- Generator: Adobe Illustrator 30.0.0, SVG Export Plug-In . SVG Version: 2.1.1 Build 123)  -->
  <defs>
    <style>
      .st0 {
        fill: #f9e708;
      }

      .st1 {
        fill: #ea3039;
      }

      .st2 {
        fill: #fae708;
      }

      .st3 {
        fill: #ec313a;
      }

      .st4 {
        display: none;
      }
    </style>
  </defs>
  <g id="Layer_1">
    <path class="st1" d="M180.3,185.6h-.4c-.1,0-.3,0-.4-.2-8.7-17.1-32.3-26.9-49.8-32.3-13-3.7-26.2-7-39.4-9.8-14.1-3.4-28.1-6.9-41.5-12.5-18.4-7.7-38.9-20.6-39.4-42.7,0-1.3,0-2.7,0-4,.3-17.8,14-31.4,28.2-40.3s42.7-18.7,64.7-23.3,44.8-7,67.8-7.3c18.9-.2,37.2.3,56,2.5,28.8,3.4,61.5,10.1,87.4,23.1,17.6,8.8,36.2,22.9,37.2,44.1.4,7.4-.2,13.3-3.6,20-10,19.6-37.2,29.3-57.2,35.1-14.7,4-29.4,7.6-44.3,10.9-20.6,5.2-45.8,12.5-60,29.2s-3.8,5-5.2,7.3Z"/>
    <g>
      <path class="st2" d="M119.4,55.9v.3c0,0,.9.2.9.2l.6-.3h.5v.6c0,0,.9.6.9.6v.4c0,0,.6.2.6.2l.7.7h.2c0,0,.4.6.4.6l-.6.7.3.2.6-.3h.6l.2,1.9.3.6-.4.5v.6l.6.5v.3c0,0-.4.6-.4.6l.6.3-.2.4.2.3-.2.6.4.5-.5,1.7h.5v.5c0,0-.2.6-.2.6l.2.7.4.6-.5,1.4.6.4-.2.8.3.5-.3.3.2,1.1.4.4-.3.6v.5c0,0-.3.5-.3.5h.6c0,0,.2.7.2.7l-.2.3.4.5-.4,1.6.6.6-.4.3-.4-.3-.2.3.7.6-.3.4.6.6-.5.6.3.5-.5.4.7.5v.6h-.6c0,0,.5.6.5.6l-.6.6.6.2.2.3-.2.6.3.6-.8.2.6.2v.4c0,0-.2.7-.2.7l.6.3-.2.3v1.2c0,0,.3.5.3.5v.3c0,0-.7,0-.7,0h.4c0,0,0,.5,0,.5l-.3.8h.6c0,0,0,.4,0,.4l-.5.4h-.4c0,0,.5.5.5.5l-.6.6.6.2.3.3v.4c0,0-.5.2-.5.2l-.3-.3h-.4l.2.4h.3l.4.4-.5.6h-.4c0,0,.2.3.2.3h.6c0,0,.3,0,.3,0v.3l-.4.2-.6-.4-.7.5v.2c0,0,.6-.3.6-.3l.7.3.2.3-.3.6.6.4v.4c0,0-.6.4-.6.4l.5.3v.4c0,0-.6.4-.6.4h-.5c0,0,0,.4,0,.4l.6-.3.5.4v.5l-.4.2v.4c0,0-.2.5-.2.5h.5c0,0,.2.4.2.4l-.4.6.5.5-.3.3h-.5c0,0-.4.4-.4.4l1,.3-.5.8.6.3v.3c0,0-.5-.2-.5-.2l-.4.5.6.2.2.3v.4c0,0-.6.2-.6.2l-.5-.5-.4.3.6.2.3.3h.6c0,0,0,.4,0,.4h-.5c0,0-.2.2-.2.2l.5.6v.5c0,0,.4.6.4.6l-.5.6.2.4-.5.6h.6c0,0,.4.5.4.5l-.2.3-.5.2h-.6c0,0,.7.4.7.4l-.6.6h.5c0,0,.6.5.6.5v.4l-.7.3.6.4-.5.6h-.6l.2.2h.7c0,0,.6.3.6.3l-.2.6.4.5-.3.5-.5-.3-1.1.4.3.2,1.1-.3v.6c0,0-.2.3-.2.3l-1.1-.2-.7.3.3.4.5-.4.8.5-.2.3-.7.2.4.4.5-.2.8.4-.2.4-.6.2-.6-.4-.3.4h.6c0,0,.2.6.2.6v.4c0,0,.3,0,.3,0l.4-.2.2-.6.4.4-.5.6v.9l-.6-.3v-.6c0,0-.4-.2-.4-.2l-.4.2.3.4-.3.3v.4c0,0,0,.3,0,.3h-.4v-.3c0,0-.4,0-.4,0l-.6.6-1.9-.3h-1c0,0-.2-.2-.2-.2l.2-.3h.6c0,0-.3-.7-.3-.7l.7-.4.2-.3-.3-.4.2-.2h.6l.2-.3-.3-.3-1.1.4v-.4c0,0-.4-.2-.4-.2l-.6.4-.6-.4.3-.3h.8l.2-.2-.5-.2-.2-.3v-.4c0,0,.8-.3.8-.3l-.3-.2h-.6c0,0-.5-.3-.5-.3l.5-.5h.5c0,0-.5-.6-.5-.6l.7-.5v-.3c0,0-.4,0-.4,0l-.4.4-.5-.4v-.4c0,0,.5-.3.5-.3v-.6l.7-.4-.4-.3-.4.2h-.4c0,0-.2-.5-.2-.5l.6-.3.4.2.6-.3h.4c0,0,0-.3,0-.3h-.3c0,0-.3,0-.3,0h-.4c0,0-.3.2-.3.2l-.2-.6.6-.6-.2-.3-.6.4-.3-.3v-.5h.6v-.4c0,0,0-.4,0-.4l.3-.3h.4l.2-.3-.3-.4-.8.3-.3-.3.6-.6v-.4c0,0,.8-.6.8-.6l-.3-.6.6-.5-.6.2-.6-.7-.6.4h-.4c0,0-.2-.4-.2-.4h1c0,0-.6-.6-.6-.6l.2-.6.6-.4-.3-.2h-.8v-.3h.7c0,0-.4-.8-.4-.8l.6-.6-.6-.3.5-.4h.7l-.3-.4h-.8l-.3-.3.3-.4h.4l.2-.2-.2-.3h-.7c0,0,.3-.6.3-.6v-.5c0,0,0-.4,0-.4h.4l.2-.2-.3-.3-.4.2-.6-.2v-.3l1.2-.3-.6-.4v-.3c0,0,0-.4,0-.4l-.8-.5v-.4c0,0,.6-.3.6-.3l.4.2-.5-.7.2-.4-.6-.6.2-.3h1c0,0-.2-.5-.2-.5h-.4c0,0-.2-.4-.2-.4l.2-.4-.6-.4v-.6h.4c0,0,0-.5,0-.5l-.2-.4.7-.4h-.8c0,0-.3-.4-.3-.4l.6-.6-.3-.6.3-.4-.6-.2v-.6l.6-.3-.5-.4-.2-1.2.6-.4-.2-.3-.6-.2v-1.3c0,0,.6-.3.6-.3l-.9-.3.3-.6v-1c0,0-.6-.5-.6-.5h.3c0,0,.2-.6.2-.6v-.4c0,0,0-.4,0-.4l-.6-.5v-.5l.6-.2v-.3c0,0-.6-.2-.6-.2v-1.4c0,0-.2-.3-.2-.3v-.5c0,0,.2-.6.2-.6v-.6c0,0,.6-.4.6-.4l-.2-.3-.6.3v-1.2l-.2-.3v-.3c0,0,0-.5,0-.5v-.8c0,0-.2-.6-.2-.6v-.8c0,0,0-.4,0-.4l-.3-.6-.2-2.2.2-.3-.3-.5v-1.4c0,0-.4-1.1-.4-1.1v-.4l.4-.6-.3-.4h-.5c0,0,0-.3,0-.3l.3-.3-.3-.6h-.3c0,0-.6-.9-.6-.9l-.7.2h-.7c0,0,0,.5,0,.5h-.4l-1.3.6-.4.6-.4.2-.6.6h-.4c0,0-.2.9-.2.9l-.8.6v.5c0,0-.4,0-.4,0v1.3h-.6l-.2.2.3.5-.6.7v4.2l-.2.6.5.7-.4.5.2,3.1-.2,1.5.2.4v2.1l-.2.6.2,1.6-.3.4.4,1.4-.4.7.2,1.1-.2.6v2.8l.3.6-.3,1.2.3.6-.2.7v.4c0,0,0,.5,0,.5l.2.4-.2,1.4.3.6-.4,1.5.4.6v1.1c0,0,0,1.5,0,1.5l-.3.2v.4c0,0,0,.4,0,.4l.4.6v1.2c0,0-.3.4-.3.4l.4.6-.5.5.4.4-.3.6.5.8-.2.7-.5.4.6.5v.8l-.5.7.6-.3-.3,1.7-.3.4.6.5-.4.7.2.4-.3.4.5.6-.3.6v.4l-.3.5.6.5v.4l-.6.4v.5c0,0-.5.6-.5.6h.9l.2.3-.4.7.2.3-.3.4.5.6-.6.6.4.4-.6.6h-.5c0,0-.4-.5-.4-.5l-.6.6h-1.2l-.4.2-1.1-.2-.4.2-.2-.4-.4.2-.4-.3v-.4c0,0-.6,0-.6,0l-.3-.3.2-.4.5.2.3-.2-.5-.9.4-.4-.2-.2h-.4l-.2-.3.2-.3.4.2.2-.5-.3-.2v-.3l.5-.5-.3-.6.2-.4-.4-.5.4-.5v-.6c0,0,.3,0,.3,0v-.4c0,0-.8-.5-.8-.5l.3-.4.9.2.9-.4-.4-.2-.6.2-.6-.5.2-.3.6-.2-.2-.2h-.4c0,0-.6-.4-.6-.4l.3-.2h.7c0,0,.9-.3.9-.3l-.4-.2-.7.2-.7-1.6.3-.5-.9-.3.2-.3h.6c0,0,.3-.2.3-.2l-.6-.6.6-.6-.3-.4v-.4c0,0-.4-.6-.4-.6l.2-.3.6-.3-.2-.5.5-.6h-.6c0,0-.5-.3-.5-.3v-.4c0,0,.5,0,.5,0v-.4c0,0,0-.4,0-.4l-.5.6-.5-.5.5-.4.4.3.9-.6-.3-.2h-.4c0,0-.4,0-.4,0v-.3c0,0,0-.2,0-.2h.7l-.4-.3-.2-.8-.6-.6.6-.4v-1.1c0,0-.5-.4-.5-.4l.6-.6-.2-.5-.6.4v-.6h.5c0,0,.3,0,.3,0l-.5-.7.6-.4-.3-.6.2-.6-.5-.4v-.4h.5v-.4c0,0,0-.4,0-.4v-.5c0,0-.3-.6-.3-.6l.5-.6-.2-.3-.5.3v-.5c0,0,.5-.3.5-.3l-.3-.3v-.5c0,0,.5-.5.5-.5v-.7c0,0-.6-.6-.6-.6l.5-.7h-.6l-.2-.3.5-.6v-.5l-.3-.6.2-.4.6.5v-.4c0,0-.4-.2-.4-.2l-.2-.7v-.4c0,0-.3-.4-.3-.4l.2-.6h.4c0,0,.2,0,.2,0l-.6-.5.2-.4-.4-.5.3-.9-.4-1.2.4-.6v-.8l.5-.2-.2-.3h-.4c0,0,0-.3,0-.3l.2-.4v-.6c0,0,.4-.2.4-.2v-.3c0,0-.6-.2-.6-.2v-.4c0,0,.4-.2.4-.2l-.2-.6v-.3c0,0-.2-.5-.2-.5l.2-.8-.2-.5.6-.7-.5.2-.3-.5.6-1.5h-.6c0,0-.2-.3-.2-.3l.4-.7-.2-.7-.4-.6.6-.6-.2-.6-.4-.5.3-.6-.7-.3v-.4l.2-.2v-.5c0,0-.9-1.2-.9-1.2l.5-.4-.2-.2h-.4l-1-1.7h-.5c0,0-.6.2-.6.2l-.4-.2-.6.9h-.4c0,0-1.1,1.1-1.1,1.1v.4h-.5c0,0,0,.5,0,.5l-.6.6-.2.6.2.6-.8.5.4.4-.7.9v.5c0,0-.4.3-.4.3l-.2.6v.7l-.6.5.3.4-.2.3-.6.3.3.7-.6.4.2.4-.2.6.6.4v.4c0,0-.6,0-.6,0l.6.6-.8.8v.2c0,0,.6-.2.6-.2l.2.3v.4c0,0-.5,0-.5,0l-.4-.4-.3.3.6.6v.3c0,0,0,.3,0,.3h.3l.2.6-.7.3.2.5v.4c0,0-.6.3-.6.3l.3.5-.2.4h.5v.6l-.5.5v.4c0,0,0,.3,0,.3l.8.7v.4l.3.2v.6c0,0,0,.2,0,.2h-.7c0,0,.4,1,.4,1l-.6.2.3.3h.3l.3-.3.3.2v.4c0,0-.6.2-.6.2l.3,1,.6.5v.4c0,0-.9,0-.9,0l.7.7v1.1c0,0-.5.6-.5.6v.5l.6.4v.4c0,0,0,.4,0,.4l.3.4-.2.4v1.4c0,0,.3.3.3.3l-.3.4-.3-.2-.2-.5v.2c0,0,0,.3,0,.3l-.2.5.6.4-.2.6.5.4-.3.5-.4-.2-.3.4h.4c0,0,.4.5.4.5v.4c0,0-.7.5-.7.5v.3c0,0,0,.5,0,.5l.7.2v.4c0,0-.2.7-.2.7l-.5.6h.6c0,0,.2.4.2.4v.4c0,0-.7.4-.7.4v1.1c0,0,.6,0,.6,0l.2.4v.4c0,0-.6,0-.6,0v.4h.6l-.2.6v.7c0,0-.6.3-.6.3l.2.5-.5.5.7.2v.7c0,0-.5.2-.5.2l.2.4h.6v.4h-.6l.5.6v.4c0,0,.2.6.2.6l-.3.5.2.6v.3c0,0,0,.4,0,.4v.3c0,0-.7,0-.7,0l-.4.4.3.3h.5l.2.6-.8,1,.2.2h.4l.2.3v.6l.2.5-.3.6v.4l-.3.6.6.5-.4.6v.4c0,0-.3.6-.3.6l.6.2v.4c0,0-.2.6-.2.6l.2,1.1-.3.4-.5.2v.4c0,0-.4.2-.4.2l-.4-.2v-.4h-.9c0,0-.4-.4-.4-.4h-1.3c0,0-.3,0-.3,0l-1.6-.2-.3-2.1.2-.4-.2-.3.3-1-.3-1.7.2-.3-.3-.5v-1.2l.2-.4v-.6l-.4-.8.4-.5-.3-1.6.4-.4-.2-.5v-.4c0,0,0-.4,0-.4v-1.2l.4-.5-.5-.3.2-.8v-.7c0,0-.4-.5-.4-.5l.4-.9-.3-.7v-.8c0,0,.6-.3.6-.3l-.4-.5.9-.6-.2-.2-.8.2v-.4c0,0,.4-.8.4-.8l-.5-1.1.4-1.1.3-.3-.5-.6v-.5l.2-.3v-.3c0,0,0-.4,0-.4l-.3-.6v-.6l.3-.2-.2-.4.2-.4-.4-.6v-.3l.4-.5v-.7c0,0-.5-.6-.5-.6v-.5c0,0,.5-.2.5-.2l-.2-.5.3-.2-.6-.3v-.4c0,0,.6-1.2.6-1.2l-.6-.6v-.5l.5-.4-.2-.2v-.4c0,0-.4-.6-.4-.6v-.4l.6-.2-.3-.4.2-.4-.5-.2v-1.7c0,0,.6,0,.6,0v-.2c0,0-.5,0-.5,0l-.3-1.6.2-.3-.2-1.3.2-1.4-.3-.5.3-.9v-.9c0,0-.4-.6-.4-.6l.4-.6-.3-1.5.3-.6-.2-1.5v-.4c0,0-.2-1.5-.2-1.5l.3-.4-.3-1.1.3-.6-.2-.3v-.4c0,0,0-.6,0-.6l.3-.7-.4-1.4.3-.6-.3-1.5.4-1.2-.2-.7.2-.4-.2-.8.2-.7h1.5c0,0,.6,0,.6,0h1.1l.6-.3h1.1c0,0,1.3-.2,1.3-.2l-.4.6v.4c0,0-.6.6-.6.6h1c0,0,0,.5,0,.5l-.5.6.2.2.9-.6.4-.6.6-.3v-.5c0,0,.7-.4.7-.4l.6-.6h.4l.6-.4h.4l.7-.5.9.3.6-.6.6.4.9-.3.3.3h.3l1.4.8.4-.2.2.2v.8h.5c0,0,.6,1.2.6,1.2l.4-.2-.2,1,.2.2h.4c0,0,0,.3,0,.3l.9,1.1-.4.6v.4h-.5c0,0,.5.5.5.5l.4-.7.8-.4.3-.6,1.4-1.5,1.1-.9h.4c0,0,.3-.6.3-.6h.5c0,0,.3-.6.3-.6l2.3-1.3,1-.3.6.2.9-.6.3.4.5-.5.2.2ZM89.8,86l.2-.4-.4.2.2.2ZM90.1,87.6v-.3h-.4v.3c0,0,.4,0,.4,0ZM89.8,103.7h.4v-.4c0,0-.2,0-.2,0l-.2.3h0ZM90.7,92.5l.6-.4h-.3c0,0-.6.2-.6.2l.3.2ZM90.7,83.3h0v.2c0,0,0-.2,0-.2ZM90.8,87l.5-.2.2-.4-.8.2.2.4ZM91.1,84l.2-.3h-.5l.3.3ZM91.5,84.7l.2-.3-.5.2h.3ZM91.3,89.7l.8-.6h-.3c0,0-.6.3-.6.3v.3ZM91.5,87.6v-.3h-.2v.3h.2ZM91.4,95.8v-.2c0,0,0,0,0,0h0ZM92,82.9v-.2c0,0-.3,0-.3,0l.3.3ZM92.1,90.7l.3-.2-.3-.2-.3.2.3.2ZM92,64.2h0c0,0,0,0,0,0h0ZM92.2,86.7h-.2v.2c0,0,.2-.2.2-.2ZM92.8,84.8l.2-.2-.3-.2-.3.4h.4ZM93,86.4l-.3-.2-.2.4.4.2v-.4ZM92.8,89.5h-.3c0,0,0,.2,0,.2l.3-.2ZM93,59.3h-.3v.3l.3-.3ZM93,82.5h-.2c0,0,0,0,0,0h.2ZM93,90.3h-.2l.2.2v-.2ZM93.3,90.5h-.3c0,0,.6.4.6.4l.3-.4h.4c0,0,.2-.2.2-.2h-.3c0,0-.6.2-.6.2h-.4ZM93.4,94.5h-.3v.3c0,0,.3-.3.3-.3ZM93.3,87l.3-.2h-.4c0,0,0,.2,0,.2ZM93.4,59.8h0c0,0,0,0,0,0h0ZM93.5,60.5l.2-.3-.5.2h.3ZM93.4,83.8h.3v-.3c0,0-.4,0-.4,0v.3ZM93.4,88.9l.4-.3-.2-.2h-.3c0,0,0,.5,0,.5ZM93.7,107.4h-.3c0,0,.2,0,.2,0h0ZM94,87.9v-.3l-.2.2h.2ZM93.9,92.5h.3c0,0,0-.4,0-.4h-.4v.3c0,0,0,0,0,0ZM94.2,99.9l.2-.2-.5-.2v.3c0,0,.3,0,.3,0ZM94.2,59.7h.3c0,0-.3-.4-.3-.4l-.3.2.3.2ZM94.2,84.1h.3c0,0-.3-.4-.3-.4l-.3.2.3.2ZM94.2,89.6h-.2c0,0,0,0,0,0h.2ZM94.2,91.7l-.2-.2v.2h.2ZM94.1,108.6l.3-.2-.3-.2v.3c0,0,0,0,0,0ZM94.3,107.6h-.2c0,0,0,.2,0,.2l.2-.2ZM95.2,82.4v.3c0,0-.7-.2-.7-.2v-.4c0,0,.6,0,.6,0l.2.4ZM95.1,80.5l-.6.4v-.5l.2-.3h.4v.4ZM95.3,107.4l-.3-.2v-.3c0,0,.5,0,.5,0l-.2.4ZM95.5,114.9h-.2c0,0,0-.3,0-.3l.2.3ZM105.1,112.8l-.3-.3.3-.3.5.3v.4c0,0-.5,0-.5,0ZM105.6,100.4v.4c0,0-.5,0-.5,0l-.2-.3v-.3c0,0,.4,0,.4,0l.3.2ZM105.2,102.7l-.3-.2.2-.3h.3l.2.3-.4.2ZM105.6,106.8l-.3.2h-.4c0,0,.2-.6.2-.6h.4l.3.3-.2.2ZM104.9,108.4h.4c0,0,.2.2.2.2v.2c0,0-.5,0-.5,0v-.5ZM105.3,114.8l-.3-.2.2-.2.2.3h0ZM105.4,116.3v.3c0,0-.4,0-.4,0v-.3c0,0,.4,0,.4,0ZM105.4,118.5h-.3c0,0,0-.3,0-.3h.3c0,0,.3,0,.3,0l-.2.2ZM105.2,90.8v-.3c0,0,.2,0,.2,0l.2.3-.2.3-.2-.2ZM105.4,95l-.3-.2v-.4l.2-.2.4.5-.3.3ZM105.5,96.7h-.3c0,0,0-.2,0-.2h.4c0,0,0,.2,0,.2ZM105.7,88.4l.2-.4-.4.3h.2ZM106,66.9l.3-.2h-.6l.3.2ZM106.1,119l.3.2.6-.3h-.9ZM106.4,122.1h.3c0,0,0-.5,0-.5l-.5.2.3.3ZM106.3,107.4v-.2.2c0,0,0,0,0,0ZM106.5,110.1v-.2c0,0,0,.2,0,.2h0ZM107.2,120.9h-.4l.2.3h.4c0,0-.2-.3-.2-.3ZM107.1,114.3l.3-.2h-.4c0,0,0,0,0,0h.2ZM107.4,117l-.3-.3h-.2c0,0,.5.3.5.3ZM107.2,101h-.2l.2.2v-.2ZM107.3,111.1h0v.2c0,0,0-.2,0-.2ZM107.4,112.3v-.3c0,0-.2.2-.2.2l.2.2h0ZM107.3,120.3v-.2c0,0,0,0,0,0v.2ZM107.4,122.2v-.2c0,0,0,.2,0,.2h0ZM108.2,119.9h-.4c0,0,.3.3.3.3v-.3ZM108,123.1h0v.2c0,0,0-.2,0-.2ZM108.8,111.1h-.2v.3c0,0,.2-.3.2-.3ZM110,119.1h.4l-.4-.3v.3ZM110.1,122.3h.4l.6-.4h-.3c0,0-.7.2-.7.2v.2ZM110.9,116h-.3c0,0,0,.2,0,.2l.4-.2ZM110.9,120.1h.3c0,0-.3-.3-.3-.3h-.3c0,0,.3.3.3.3ZM122.6,78.9h-.3v.2c0,0,.3-.2.3-.2ZM122.9,109.5l-.6-.2.6-.3.3.2-.2.3ZM122.6,81.1l.2-.3-.5.2h.3ZM123,111.2v.3c0,0-.6-.3-.6-.3l.6-.2v.2ZM123.7,108.5l-.2.3-.6-.3v-.3c0,0,.2-.2.2-.2h.7c0,0,.2.2.2.2l-.3.3ZM123.3,98.1l.3-.2-.2-.3h-.3l-.2.4h.4ZM123.3,57.2h0c0,0-.3-.2-.3-.2l.3.2ZM123.2,86h.4v-.2h-.3c0,0-.2,0-.2,0h0ZM123.4,122.4l-.3-.2h.6l-.4.2ZM123.2,57.6h.2c0,0,0,0,0,0h-.3ZM123.3,57.3v.2c0,0,.2,0,.2,0h-.2ZM123.5,87.9h-.2c0,0,0,.2,0,.2v-.2ZM123.5,90.8l-.2.3.8-.4-.4-.2-.3.3ZM123.9,93h.4c0,0-.2-.4-.2-.4h-.4c0,0-.2.4-.2.4h.4ZM123.9,101.1v-.3c0,0-.4.4-.4.4h.4ZM124.4,121.4l-.3.3h-.4l-.2-.6h.7c0,0,0,.3,0,.3ZM124,99.2h.3c0,0,0-.5,0-.5h-.4l-.2.4h.4ZM124,107l.2-.3h-.3c0,0-.3.2-.3.2h.4ZM123.7,103.9l.3.2.9-.3-.5-.3-.7.4ZM124.5,105.4l-.5.6h.6l.2-.3-.4-.3ZM124.7,119.9l.6.3v-.5c0,0-.9-.2-.9-.2l-.2.4h.5ZM124.7,85.9h-.3c0,0,0,.3,0,.3l.4-.3ZM124.5,111.7h.6l-.3-.3-.4.2h0ZM124.6,116h.4c0,0-.5-.5-.5-.5l-.2.3.3.2ZM124.7,82.1l.2-.2h-.3c0,0-.2,0-.2,0h.3ZM124.5,114.9l.2.3.8-.3.2-.3-.8.2h-.4ZM124.9,117h-.4c0,0,.3.3.3.3v-.3ZM124.8,118.9v-.2c0,0-.3.3-.3.3h.3ZM125.8,113l-.4-.5-.6.5h1ZM125.6,75.2l.2-.2h-.8c0,0,.4,0,.4,0l.3.2ZM125.6,67l-.5.5h.4l.3-.3-.2-.2ZM125.3,77.2l.3-.2h-.4c0,0,0,.3,0,.3h.2ZM125.5,108.9h.4c0,0-.5-.3-.5-.3l-.3.2h.4ZM125.5,123l.3-.3h-.4c0,0-.3.2-.3.2h.4ZM125.4,112.1h.3l-.2-.3h-.3l.2.3ZM125.5,116.6h-.2c0,0,0,.2,0,.2l.3-.2ZM125.6,118.1l-.2-.3h-.2c0,0,.4.3.4.3ZM125.6,122.1v-.3c0,0-.4.2-.4.2h.4ZM125.3,69.4h.2-.2c0,0,0,0,0,0ZM125.5,97.8l-.2.3.3.2.8-.4-.3-.2h-.4c0,0-.3,0-.3,0ZM125.7,71.5l-.3-.2v.2h.3ZM125.7,96.1v-.2h-.3c0,0,.3.2.3.2ZM125.6,111h0c0,0-.2-.4-.2-.4v.3c0,0,0,0,0,0ZM125.7,118.6h-.3v.2c0,0,.3-.2.3-.2ZM125.7,65.4v-.2c0,0-.2.2-.2.2h.2ZM125.9,114h.4l.2-.3h-.4c0,0-.4,0-.4,0v.3c0,0,.2,0,.2,0ZM126.1,88.2l.4-.4-.6.4h.3ZM126.2,96.2l.2-.4h-.3l-.3.3h.4ZM126.2,102.1v-.3c0,0-.4.2-.4.2h.4ZM126.2,108h.2c0,0-.3-.3-.3-.3l-.3.3h.4ZM126.1,116l.3-.3h-.6l.3.3ZM126.2,119.9h.3c0,0-.3-.4-.3-.4l-.4.2.4.2ZM126.7,120.7l-.7.4.3.3-.4.6h.6l.4.2-.5-.6v-.4c0,0,1.2,0,1.2,0l-.6-.5h-.4ZM126.4,110.1v-.3h-.4c0,0,0,0,0,0l.4.2ZM126.4,111.2v-.3c0,0-.3,0-.3,0v.2c0,0,.3,0,.3,0ZM126.7,118l.2.4-.8.7.4.2.8-.4-.3-1h-.3ZM126.3,100h-.2v.2c0,0,.2-.2.2-.2ZM126.2,107.3l.3-.2-.4.2h0ZM126.5,117.1l.3-.3-.6.4h.4ZM126.8,115.1l.2-.3h-.4c0,0-.2.3-.2.3h.4ZM126.9,85.1h-.3v.2c0,0,.3-.2.3-.2ZM126.8,101.3h.3c0,0-.3-.4-.3-.4l-.3.2.3.2ZM126.8,123h.3v-.2l-.3-.2-.3.3h.3ZM126.9,105.2l.3-.3h-.6l.3.3ZM126.6,119.8l.2.3h.6v-.3c0,0-.7,0-.7,0ZM126.8,91.2v-.2.2c0,0,0,0,0,0ZM127,93l-.2-.2-.2.2h.4ZM126.9,110.9l-.2-.2v.2h.2ZM127,116.1l.4-.2-.4-.2-.4.2.4.2ZM127,108.2l-.2-.2v.3c0,0,.2,0,.2,0ZM126.8,112l.2.2.2-.2h-.4ZM127,99v.3-.3c0,0,0,0,0,0ZM127.2,114.1h.4l.2-.2-.2-.2-.6.2.3.2ZM127.3,104.1l.4-.3h-.3c0,0-.2.2-.2.2h0ZM127.8,100.2v-.3h-.4v.3c0,0,.4,0,.4,0ZM127.7,102.4l.3-.2-.2-.4h-.4c0,0,0,.5,0,.5h.4ZM127.7,111.9l-.2-.2-.2.2h.4ZM127.3,113.1l.3.3.2-.3h-.5ZM127.6,122.1l.3-.2v-.4c0,0-.6.4-.6.4l.3.2ZM127.4,107.3h.3c0,0,.2,0,.2,0h-.5c0,0,0,0,0,0ZM127.6,115.2h.9c0,0,0-.3,0-.3l-.2-.3-1,.4.2.2ZM127.8,110.1v-.3l-.3.2h.3ZM128.2,116.8h-.6c0,0,.2.4.2.4l1-.2-.4-.4-.2.2ZM128.2,111.1h.5l-.2-.8h-.4c0,0-.2.7-.2.7h.3ZM129.9,119.5l-.2.4h-.3c0,0,0-.3,0-.3l.2-.2h.4Z"/>
      <path class="st2" d="M156.7,78.9h.3c0,0,0,.4,0,.4l.6.5.3-.3h.8c0,0,.4-.2.4-.2l.2.4h.4c0,0-.3.5-.3.5v.5l.3.2.4-.2v-.6c0,0,.6,0,.6,0v.6c0,0,.4-.5.4-.5h.5c0,0,.6,0,.6,0l-.3.4.2.5h.4l.6.4.4.5v-.4c0,0,.5,0,.5,0l.3.6.8.2.3-.2v-.8c0,0,0,0,0,0v-1.1c0,0-.3-.6-.3-.6l.6-.6-.5-.3.4-.4-.5-.6v-.4c0,0,.3-.4.3-.4v-.5c0,0,.2-.2.2-.2h-.5v-.6l.4-.6-.3-.4v-.4c0,0,0-.6,0-.6v-.4c0,0,.7-.3.7-.3l-.7-.5v-.6c0,0,0-.3,0-.3l.6-.6-.5-.4-.2.4-.4-.4v-.4c0,0,.5,0,.5,0v-1.1c0,0-.2-.2-.2-.2l-.2-.6.3-.5-.4-.5-.5.6.2-1.1-.5-1.2v-.5c0,0-.3-.6-.3-.6v-.5c0,0-.5-.4-.5-.4l-.6.5-.3-.2v-.4c0,0,.6-.4.6-.4l-.2-.3-.6.5h-.3c0,0-.2-.7-.2-.7l.6-.3-.2-.5-.4-.2v.4c0,0-.6.2-.6.2v-1c0,0,.5-.3.5-.3h-.4c0,0-.7.2-.7.2l-.4-.8-.4.5-1.1-.5-.4.2h-.4c0,0,.2-.6.2-.6v-.6c0,0-.5,0-.5,0v.8c0,0-.8,0-.8,0l-.6.6-.6-.6v.4c0,0-.7.5-.7.5l-.6-.5-.3.4.2.4-.9.6.2.4v.3c0,0-1,.4-1,.4h.5v.8h-.3c0,0-.4-.3-.4-.3l-.4.3.7.6-.2.4.5.6v.4c0,0-.6,0-.6,0l-.2.3.4.6-.4.6.3.5-.6.3.4.7v.4c0,0,0,.5,0,.5l-.5.4.4.3v.7l.3.6v1.4c0,0,0,.6,0,.6v.4c0,0,0,.5,0,.5l-.6.6h-.3c0,0-.9,0-.9,0h-1.5c0,0-.4.3-.4.3h-.8c0,0-.7,0-.7,0l-.5-.6v-.7c0,0,0-.5,0-.5l.2-.6-.4-1.6.2-.4-.3-.5.2-.3-.4-.7.2-.8v-.8c0,0,.5-1.6.5-1.6l-.2-.4.3-.7v-1.1c0,0,.5-.6.5-.6l-.2-.6.2-.4.5-.2-.2-.5v-.7c0,0,.5-.6.5-.6v-.8c0,0,.6-.3.6-.3v-.4c0,0,.3-.5.3-.5l.6.2-.2-.8.2-.2h.7l.2-.6.6-.3.2-.4h.4l.8.4.2-.4-.5-.3.6-.5.6.4-.3.2.3.3.3-.3-.2-.8,1.2.2v-.4h.3c0,0,.7.4.7.4l.3-.5h.6c0,0,.5.5.5.5h1c0,0,.3,0,.3,0l.3-.2h.5c0,0,.3.5.3.5l.3-.3h.6l-.2.2v.2c0,0,.9.3.9.3v-.5c0,0,.6.5.6.5l-.2.3.4.6h.4l.4-.6v.3c0,0-.2.5-.2.5l.3.3.5-.5.3.3v.8h-.4c0,0-.4.5-.4.5h.3c0,0,.9-.3.9-.3v-.5l.7-.5.2.3v.4c0,0-.6.3-.6.3l.2.3h1.1c0,0,0,.6,0,.6l-.6.2v.3c0,0,.5,0,.5,0l.3-.2.6.2v.4c0,0-.5.3-.5.3v.4c0,0-.4.2-.4.2l.2.3h.5c0,0,.4,0,.4,0h.6l.5.4-.4.6.3.5.3-.2h.6c0,0-.5.7-.5.7l.2.3h.4c0,0,.3,0,.3,0l-.3.2h-.4c0,0-.9.4-.9.4h.9l.7.3-.9.6-.4-.2-.3.2h-.4c0,0-.7.3-.7.3l.3.2.9-.4.5.3h1.2c0,0,0,.4,0,.4l-.3.3-1-.3v.3c0,0,.7.5.7.5l-.7.6.2.3h1c0,0,.3,0,.3,0l-.5.6,1.1.2v.3c0,0-.7.5-.7.5l1.2.3-.2,1.3-.6.5h.5l.5.5-.5.6.9.3-.4.8h.5c0,0-.5.6-.5.6l.5.5v.4l-.6.5.7.4-.8.4.2.3h.4c0,0,.2.4.2.4l-.4.8h.6c0,0,0,.5,0,.5h-.6c0,0,.5.6.5.6v1.2h-.5c0,0,.4.7.4.7l-.2.6.6.4-.3.5-.5-.2h-.3c0,0,.5.4.5.4l.3.6-.6.6h.7v.6l-.5-.2-.4.3.6.3.2.3-.2.4.4.6v.4c0,0-.4.2-.4.2l-.3-.3-.3.2.6.5v.4l-.4.5h.7c0,0,0,.5,0,.5l-.3.2-.3-.2h-.3c0,0,.6.8.6.8l-.3.6.5.2v.4l-.4.5v.6l.4.6-.2.6v1.4c0,0-.2.6-.2.6l.2.4-.3.5.4.4-.4.6.2.4-.4.5.5.6-.3.5v.8c0,0,.3.6.3.6v.4c0,0-.6.2-.6.2v.9l.5.6-.3.9.3.6-.3,1,.2,1.6-.5.5.4.4v.4c0,0,.2.6.2.6l-.5.2-.2.3.5.5v.3c0,0,.2.6.2.6l-.2.3h-.6c0,0,0,.5,0,.5l.5.3-.4.4.5.6-.5.6.3.5-.4.2.6.5v.4c0,0-.3.6-.3.6l.4,1.3-.6.6.2.4v.3c0,0,.2.4.2.4v.4c0,0-.6.6-.6.6v.6l.5.4v.5l-.4.6v.3c0,0,0,.3,0,.3l.4.6-.5.6.2,1.8-.4.3.2.6h-3.8c0,0-.8-.3-.8-.3h-.7c0,0-.2-.5-.2-.5v-.8l.2-.4-.2-1.7.3-.3-.2-.3v-.4c0,0-.3-.5-.3-.5v-.5c0,0-.4-.2-.4-.2l-.8.6h-.4l-2.1,1.4h-.6c0,0-.5-.2-.5-.2l-.5.5h-.8c0,0-.4,0-.4,0l-.3.2h-.6c0,0-.6-.5-.6-.5l-.6.6-.6-.6h-.4c0,0-.6-.9-.6-.9l-.2.6h-.6c0,0-.6-.5-.6-.5h-.4l-.5-.6h-.6c0,0,0-.4,0-.4l.5-.6-.4-.2-.4.3-1.1-.5-1.1-1v-.5c0,0-.6-.6-.6-.6v-.4c0,0-.8-.7-.8-.7v-.5c0,0-.6-.4-.6-.4v-.4c0,0-.7-.6-.7-.6l.2-.4-.5-.4v-.3c0,0,.3,0,.3,0l.7-.5v-.2c0,0-.5,0-.5,0l-.6.3-.4-.5.7-.5-.5-.5-.5.5-.3-.3v-.5c0,0,.6-.3.6-.3l-.5-.4v-.6c0,0-.8-.6-.8-.6v-.7c0,0,0-.3,0-.3l.6-.3-.2-.5.5-.5h-.7l-.8-.6.6-.3-.6-.5v-.4l.3-.2h.6l-.2-.3-.9-.3v-.2h.6l.9-.4h-.4c0,0-.4,0-.4,0l-.6-.2v-.4c0,0,.6-.5.6-.5l-.3-.2h-.5v-1.5l.3-.2-.5-.6.2-.4-.2-.4v-.6c0,0,0-.4,0-.4l.3-.6v-1.5c0,0,0-.4,0-.4v-.6c0,0,.5-.5.5-.5l-.6-.2.2-1.5.6-.5v-.2c0,0-.5,0-.5,0h.4l.2-.6-.4-.5.5-.6v-.4c0,0,.3-.5.3-.5l-.2-.5.4-.4v-.7c0,0,0-.3,0-.3l.3.2h.4c0,0-.2-.8-.2-.8l.2-.4h.6c0,0-.3-.5-.3-.5l.3-.6h.5l-.2-.5h.5v-.5l1-1,.9.3-.5-.6v-.4l.5-.4v.5c0,0,.6,0,.6,0l.4-.2v-.5l.9-.5.5-.6h.4v-.5h.4l.6.3.3-.4-.2-.4h.3l.3.3h.5c0,0,.3-.4.3-.4h1.2c0,0,.7,0,.7,0l.4.2h.6c0,0,.3-.4.3-.4h-.2v-.3ZM143.4,98.6h.4c0,0,0-.4,0-.4h-.4l-.2.3h.3ZM143.5,96.5v-.2c0,0,0,0,0,0v.2c0,0,0,0,0,0ZM143.8,105.8l-.4-.6.4-.2.4.2.2.4-.6.2ZM144.1,97.5l.4-.2h-.4v.2ZM144.1,99.5h.4c0,0,.3-.2.3-.2h-.6v.2ZM144.4,97.9l-.3.2v.2h.5l-.2-.4ZM144.3,107.3l.8-.5-.6-.2-.4.5.2.2ZM144.3,108.6v-.5c0,0,.2,0,.2,0l-.2.4ZM144.5,89.5h-.2v.3l.2-.3ZM144.5,101.2v.3c0,0,.2,0,.2,0l.4-.5h-.2l-.4.3ZM144.7,90.4v-.2l-.2.2h.2ZM145,103.1h.4c0,0-.5-.5-.5-.5l-.2.3.3.2ZM145,98.5h.4v-.3c0,0-.4,0-.4,0l-.2.2h.2ZM145.1,102.4h.4l.2-.4h-.5c0,0-.2,0-.2,0v.3ZM145,108l.3.2.6-.5h-.3c0,0-.6,0-.6,0v.2ZM145.6,89.2h-.4v.2c0,0,.7.4.7.4l.4-.2-.5-.2-.3-.2ZM145.6,93.5v-.3h-.5v.2h.5ZM145.3,96.6v-.2c0,0-.2,0-.2,0h.2ZM145.3,104.2v-.3c0,0,0,.4,0,.4h0ZM145.6,106.2l.5-.4h-.4c0,0-.5.3-.5.3h.4ZM145.5,91.4h.2l-.3-.2v.2ZM146,105.4l.6-.5h-.5c0,0-.6,0-.6,0v.3c0,0,.5,0,.5,0ZM145.7,90.4l.5-.3h-.4l-.2.2h0ZM146.1,97.4h-.3v.2l.3-.2ZM145.8,101.4l.4-.2h-.4v.2ZM146,102.1l-.2-.2h0c0,0,.2.2.2.2ZM146,102.9h-.2l.2.2v-.2ZM146.1,107.1l.6-.3h-.7v.3c0,0,.2,0,.2,0ZM146.2,108.8l.3-.2-.3-.2-.3.3h.3ZM146.4,108.2l.6-.3.4.2v-.4h-.4c0,0-.8.3-.8.3l.2.2ZM146.6,101.1v-.2l-.3.2h.3ZM146.3,112.1l.6-.2.2-.4h-.7c0,0,0,.6,0,.6ZM146.4,100.3l.3.3.7-.6-.6.2h-.4ZM146.5,102.4l.4-.2-.3-.2-.2.2v.2ZM146.4,109.8l.2.3.4-.4.2.2v-.3h-.6c0,0,0,.2,0,.2ZM146.8,104.4l.2-.4h-.4c0,0-.2.4-.2.4h.4ZM146.8,106.1l.4-.3h-.5l-.3.3h.4ZM154.1,85.1l-.2.3h-.4c0,0-.9-.3-.9-.3v.7c0,0-.6-.3-.6-.3l-.6.8-.4-.3-.2.2.3.4-.2.4-.4.2h-.5c0,0-.3,0-.3,0l.2.6v1l-.8.5-.8-.2.8.8-.4.5.6.3v.3l-.5.2-.5-.3-.4.4.8.6-.8.8h.4c0,0,.4-.2.4-.2h.4c0,0,0,.5,0,.5l-.4.2h-.7v.4l.6.3.2.3h-.5c0,0-.4.6-.4.6h.7c0,0,0,0,0,0l-.2.3h-.6l-.2.3.6.2.2.4-.3.3h-.8c0,0,.6.7.6.7l-.8.3-.2.3v.2c0,0,.9-.2.9-.2l.6.4-.9.3-.3-.2h-.4c0,0-.6.6-.6.6h.3c0,0,.6-.2.6-.2h.4l.5.6-.6.5h-.6c0,0,.3.3.3.3l.6-.4.6.5-.6.6.3.4-.6.4v.3c0,0,.6,0,.6,0l.5.5-.5.4h-.7l.5.5h.4c0,0,.5-.2.5-.2l.4.4-.2.2-.7-.2-.6.2-.3.6h.3c0,0,0-.3,0-.3h.3c0,0,.6,0,.6,0l.3.3-.6.4h-.4v.4l.4.2.3-.3h.5c0,0,0,.3,0,.3l-.6.6-.3-.5-.8.2-.3.3.2.2h1.1c0,0,.3,0,.3,0h.6l.3.2-.3.7.5.5-.7-.2v.3c0,0-.6.2-.6.2h1.2l-.3,1,.6.5-.6.2-.4-.3-.4.5h.4c0,0,.4,0,.4,0l.6.3.2.4h-.4l-.6-.3v.8c0,0,.8-.3.8-.3h.5l.6.6.5-.3.2.6-.3.3v.4h1v.6l.6.5v.3c0,0,0,.5,0,.5l.8.2.2.6.8-.2,1.1.4.2.4.9-.2.6.4,1.3-.4.4.2.3-.5.8-.6.4-.7,1.2-.6v-.6l.6-.5v-.5l.6-.3.3-1.2.4-.6-.2-.4.6-1.8v-.6c0,0,0-.6,0-.6v-1c0,0,0-1.4,0-1.4v-.7c0,0,.6-.3.6-.3v-.3l-.6-.5.2-.5v-.5c0,0,0-.5,0-.5l-.3-1.2.3-.7-.2-.8.2-.5v-1.5c0,0,.3-.4.3-.4l-.3-.4.2-.6-.3-.9-.4-.5.2-.4v-.5c0,0-.6-.5-.6-.5v-.4c0,0-.6-.7-.6-.7l-.2-.5-.6-.6-.7-1.4-.6-.5-.5-.6-1.1-.2-1-.6h-.8c0,0-.9-.6-.9-.6l-.6.3-.3-.2h-2ZM146.6,99.2h.4c0,0,0-.2,0-.2h-.4v.2ZM146.9,89.5h.3c0,0-.2-.3-.2-.3l-.2.2h0ZM147.8,91.6h-.3v.2l.3-.2ZM147.7,108.8l.3-.2h-.5l.2.2ZM147.8,111l.3-.4h-.4c0,0-.2,0-.2,0l.3.3ZM147.7,94.4h0c0,0,0,0,0,0h0ZM148.1,113.6h0c0,0-.3,0-.3,0v.3c0,0,.3-.3.3-.3ZM148,106.5l.7-.6h-.3c0,0-.4,0-.4,0l-.3.4.2.3ZM148.1,108.3l.7-.3v-.4c0,0-.9.3-.9.3v.3c0,0,.2,0,.2,0ZM148.5,109.8v-.2h-.3l-.2.3h.5ZM148.6,111.9l.3-.3h-.7v.3c0,0,.5,0,.5,0ZM148.5,100.4h.3c0,0,.2.2.2.2l-.2.3-.5-.2.2-.3ZM148.8,99l-.3-.2h.4c0,0,0,.2,0,.2ZM149.2,111l.4-.2-.3-.3-.5.5h.4ZM149.3,114.8l.2-.4h-.6v.3c0,0,.4,0,.4,0ZM149.3,81.2h-.4c0,0,0-.3,0-.3l.4-.2v.5ZM149.3,112.5h-.3c0,0,0,.2,0,.2l.3.3.3-.3-.2-.2ZM149.4,112.2l.6-.3-.2-.3h-.6l-.2.6h.3ZM149.2,113.9h.4l.3-.4h-.6v.4ZM149.4,116l.6-.4h-.8c0,0,.2.4.2.4ZM149.8,89.8h-.2v-.2c0,0,.2.2.2.2ZM149.8,59.4l.3-.2h-.4v.2ZM150,113l.2-.2-.3.2h0ZM150.3,115l.5-.5-.3-.2h-.4c0,0-.2.4-.2.4v.4c0,0,.4,0,.4,0ZM150.5,80.5h-.4v-.3c0,0,.5,0,.5,0v.4ZM150.6,111.1l.4-.3h-.6c0,0,0,.2,0,.2h.4ZM150.7,116.7l-.3-.2-.2.2h.5ZM151,82v-.4h-.4v.6l.4-.2ZM150.8,112.2h.3l.2-.3h-.3c0,0-.3,0-.3,0v.2ZM151.5,57.7v-.5c0,0,0,0,0,0l-.3.3.4.3ZM151.4,115.8v-.3c0,0-.2,0-.2,0v.3c0,0,.2,0,.2,0ZM151.5,59.5h.3c0,0,0-.2,0-.2l-.2-.3h-.4v.2c0,0,.2.3.2.3ZM151.8,65.3l.3-.2h-.4c0,0,0,.2,0,.2ZM152,113.2l.2-.3-.6.2h.4ZM152.8,62.4l-.5-.3v.4h.4c0,0,0,0,0,0ZM152.7,113.9l.2-.3h-.3c0,0,0,.3,0,.3ZM152.8,61v.3c0,0,.7.5.7.5l.2-.4-.8-.4h0ZM153,57.4l.2-.2h-.2v.2ZM153.1,118.5v.3h.5l.3-.2-.2-.3-.5-.2v.4ZM153.7,57.9h-.3v.4c0,0,.3-.4.3-.4ZM153.6,114.9v-.3l-.2.3h.2ZM154.5,81l-.2-.2v.3c0,0,.2,0,.2,0ZM154.9,115l.2-.2h-.4l.2.2ZM155.4,60.3v-.4h-.3v.4h.3ZM155.5,56.1h-.3c0,0,0,.3,0,.3l.3-.3ZM155.5,117.5l.2.3h.3c0,0,0-.5,0-.5h-.3c0,0,0,.2,0,.2ZM156.4,55.8l.4.5-.2-.6-.2.2ZM156.8,58l-.2-.2v.4c0,0,.2-.2.2-.2ZM157.7,56.9l-.2-.4h-.3c0,0,0,.6,0,.6l.4-.3ZM157.5,59.1v-.3h-.3v.3h.3ZM157.7,56.1v.4c0,0,.3,0,.3,0l.2-.4-.3-.5-.2.2v.4ZM158.4,80.2v-.4l-.5-.2v.4c0,0,.5.2.5.2ZM158.1,59.1v.4l.8-.3v-.5c0,0-.4.2-.4.2l-.5.2ZM158.6,57.3l.4-.3-.4-.3v-.4c0,0-.2-.2-.2-.2l-.2,1.1h.4ZM159.2,60.4l.5-.5-.2-.3h-.3v.7ZM159.5,58.1h.2c0,0-.3-.2-.3-.2v.2ZM159.8,58.8v.3c0,0,.3.2.3.2l.3-.2-.2-.4v-.4c0,0-.3,0-.3,0v.4ZM160.2,56.9l.3.2v-.4c0,0-.5,0-.5,0l.2.3ZM160.6,60v-.2h-.2l.2.2ZM160.9,58.1l.2-.4h-.2v-.5.7c0,0,0,0,0,0ZM161.7,59v.2h-.5l-.2.2.4.2.4-.2.2-.4h-.2c0,0,.5-.6.5-.6l-.3-.2-.6.5.4.3ZM162.1,60.3l-.2-.2v.3c0,0,.2,0,.2,0ZM162.2,57.6v-.3c0,0-.2.3-.2.3h.2ZM162.7,59.5l.3.2v-.4c0,0-.6,0-.6,0v.3c0,0,.3,0,.3,0ZM162.5,61.5h.3l.2-.3-.4-.2-.2.4h0ZM163.2,60.5l-.2-.2h-.3c0,0,.5.2.5.2ZM163,62.6l.9-.4v-.2c0,0-.6,0-.6,0l-.6.5.3.2ZM163.5,64.8v.7c0,0-.5-.2-.5-.2v-.4l-.3-.4.2-.2h.4l.2.4ZM163.7,60.3l-.2-.3v.3c0,0,.2,0,.2,0ZM163.6,61.4l.4.2.7-.3.3.2.4-.5-.6.2-.2-.3-1,.4h0ZM164,59.5l.6-.3v-.2l-.8.3.2.2ZM164,63.5l.3-.3h-.3c0,0,0,.2,0,.2h0ZM164.7,62.5l.6-.5-.4-.2-.6.5.5.2ZM164.3,60.3v.3c0,0,1.1-.5,1.1-.5v-.2h-.6c0,0-.3.4-.3.4h-.2ZM164.8,66.2l.3-.3h-.4l-.4.3h.5ZM164.9,64.1l.2-.3h-.4c0,0-.2.4-.2.4h.4ZM165.1,63.5l.6-.6h-.4c0,0-.5.4-.5.4l.2.2ZM165.5,64.8l-.6.3v.4c0,0,1-.6,1-.6l-.2-.3-.2.2ZM164.9,67.3l1-.4-.3-.2-.7.3v.3ZM165.6,68.9v-.3c0,0-.2,0-.2,0l-.2.3v.3c0,0,.4-.3.4-.3ZM165.7,62.4l.7-.3v-.3h-.3c0,0-.6.4-.6.4v.2ZM166.3,66.2l.4-.3h-.3c0,0-.5.3-.5.3h.4ZM166.6,63.9v-.2h-.4c0,0-.2.4-.2.4l.6-.2ZM166.9,60.4l-.2.4h-.4c0,0-.3-.2-.3-.2l.2-.3h.5c0,0,.2,0,.2,0ZM166.8,63.3l.6-.5h-.5c0,0-.3,0-.3,0v.4c0,0,.2,0,.2,0ZM166.6,69l.2-.2h-.3c0,0,0,.2,0,.2ZM167.2,66.7h-.4v.3l.4-.3ZM167.9,68h.3c0,0,0-.3,0-.3h-.4l.2.3ZM168.4,69l.6-.3-.3-.2-.6.4h.3ZM168.9,66.5h-.5l.6-.3.5.4-.3.3-.4-.4ZM168.9,119.7l-.2-.2v.3c0,0,.2,0,.2,0ZM169.2,70.2l.3-.4-.3-.2-.4.2v.4c0,0,.4,0,.4,0ZM169.1,64.9l-.2-.4h.4c0,0-.2.4-.2.4ZM169.9,67.9l-.4-.4h.5v.4ZM170.1,72.9v-.2c0,0-.2-.2-.2-.2l-.3.3h.5ZM170.1,76.1h-.3c0,0,0,.3,0,.3l.2-.3ZM170.5,70.7v-.3c0,0,.3,0,.3,0l-.3.4Z"/>
      <path class="st2" d="M190.2,81.6h.6c0,0-.5-.7-.5-.7h-.4l-.3-.3h.6c0,0,.6-.2.6-.2l-.2-.4h-1c0,0-.3,0-.3,0v-.4c0,0,.9-.2.9-.2l.3.2,1-.5-.2-.3.2-.2h.6c0,0,.2-.5.2-.5h-.8l-.6.5v.4c0,0-.5.2-.5.2l-.4-.3h-.7c0,0-.6.5-.6.5v-.6l.6-.5-.2-.4-.6.3h-.4c0,0,0-.5,0-.5l.6-.4-.2-.3h-.7c0,0,0-.4,0-.4h1.1c0,0,.4-.3.4-.3l.7.2.3-.2h.6c0,0,0,0,0,0l-.3-.3-.7.3-.8-.3-1,.2v-.4c0,0,0-.3,0-.3h.4c0,0,.8,0,.8,0l.6-.4-.4-.3-.7.4-.6-.4-.4.2h-.6v-.6l.6-.4v-.4l.5-.6-.4-.2-.6.3-.2-.6.3-.2h.9l.2-.3-1.1-.5-.3.2-.7-.2.3-.4h.4c0,0,.5.2.5.2l.4-.2-.2-.3h-.4l-.5-.8h-.4v-.4c0,0,.6-.7.6-.7l-.3-.4v-.3c0,0-.5-.6-.5-.6v-.3c0,0,.6-.4.6-.4l-.2-.4h-.4c0,0-.2-.2-.2-.2h.4l.2-.3-.4-.6.3-.3h.7c0,0-.6-1.6-.6-1.6l.2-.4.3.3v.6l.4-.2-.2-.3.2-.4-.6-.4.2-.6h.4c0,0,0-1,0-1l.6-.2-.6-.2.6-.5-.2-.6v-.3c0,0,.6,0,.6,0l.2-.3v-.6l.6-.2v-.7c0,0,.2-.3.2-.3l.4.2.3-.3v-.5c0,0,.5.3.5.3l-.2-.5.5-.4v-.3c0,0,.5.3.5.3h.4l.2.3.2-.2h-.3c0,0,0-.6,0-.6l.5-.5.6.3.3-.2-.6-.6.4-.2h.5c0,0,.3-.2.3-.2l.8-.3.4.3v-.4h.9c0,0,.6-.3.6-.3h.4l.5.5,1-.6.3.6h.4l.6-.4h.3v.4c0,0,.8.3.8.3l.3-.2,1.1.2v.6c0,0,1.6.6,1.6.6l.2.6.3.3h.4l.3,1-.4.6.7.6v.5c0,0,.8.2.8.2l-.2.6.4.3v.4c0,0-.3.6-.3.6v.3h.6c0,0,0,1.7,0,1.7l.2.6h-.5c0,0,0,.2,0,.2l.3.3v.5c0,0-.6.6-.6.6l.2.4v.3c0,0,.4.4.4.4l-.2.7-.3.2v.7l.4.4-.5,1.9.3.3-.3,1.2v.7c0,0,0,1,0,1v.4c0,0-.5.3-.5.3l-.5-.4-.9.2-1.9-.4h-.3c0,0-1.4,0-1.4,0l-.2-.3v-1.1l.2-.7.2-3,.2-.7v-2.8c0,0-.3-.6-.3-.6l.2-.7-.6-2.5-1.4-1.2h-.6c0,0-.6,0-.6,0l-.9.3-.2-.4h-.6c0,0-.4.6-.4.6h-.5c0,0,0,.7,0,.7h-.8c0,0,.3.6.3.6v.4c0,0-.9-.4-.9-.4h-.3c0,0,0,.5,0,.5l.5.4v.4h-.4c0,0-.4-.2-.4-.2l-.2.2.2.5.4.2v.7c0,0-.8,0-.8,0l-.4.6-.8-.4-.3.3.7.5,1-.3h.2c0,0-.4.9-.4.9l.2.4v.4c0,0,0,.8,0,.8l-1.1-.5-.2.8h.7c0,0,.3.3.3.3l-.3.6h-.6c0,0,.2.4.2.4h.8l.2.3-.3.5.3.5-.6.6h.8l.2.4-.3.6.6.2v.4l-.4.5.3.3h.2c0,0,.4,0,.4,0v1c0,0-.6.5-.6.5l.4.3.4-.2h.4c0,0,.2.5.2.5l-.6.4h-.3l-.2-.5-1.3.4-.6-.3-.3.4h.8l.6.3.4-.2,1.2.4h.5c0,0,.2.2.2.2l-.4.5-.9-.4-.2.4v.2c0,0,.7-.2.7-.2v.7c0,0-.4.2-.4.2l.4.3.3-.3h.6l-.4-.5v-.3h.5l.2.3v.6c0,0,.7.4.7.4v.5l.4.6.4.2v.5c0,0,.6.6.6.6v.4l.4.5-.6.3h.4c0,0,.3-.2.3-.2l.3.2v.3l.4.3-.3.5h.6l.2.6h-.3v.5l.6-.2.4.6-.5.5.2.2.7-.2.5.5.7.2v.4l-.5-.3-.8.2-.2.2v.3c0,0,.7-.2.7-.2l.8.4.5-.2v.4c0,0-1.1.2-1.1.2l-.2.3.2.3.7-.3.3.3h.4l.3.2-.7.2-.3.3v.2c0,0,.8-.2.8-.2l.6.5-.7.7.3.2h.7c0,0,.2,0,.2,0l-.6.6.3.3.7-.2.3.6-.2.3h-.4c0,0-.4-.3-.4-.3l-.2.2.6.5,1.1-.2v.6c0,0-.2.2-.2.2h-.6c0,0,.4.5.4.5l.8-.3.2.2v.6c0,0-.5,0-.5,0l.2.3h.7v.4c0,0,0,.3,0,.3l.6.7.4.8-.2.5.6.4v.5c0,0-.6.4-.6.4v.2h.6c0,0,.4.5.4.5l-.3.4v.4c0,0-.4.4-.4.4l.2.2h.7l.3.4-.2.4-.4.2-.6-.4-.4.3.2.2h.3c0,0,.3.6.3.6l.4.2.4-.6.4.2-.2.6.2.2h.4l-.4.5.3.3v.7l.5.8-.3.4.3.4-.5.6h-.6l.3.2h.7c0,0,.2.2.2.2l-.3.5h-.4c0,0,.3.4.3.4h.5l-.2.3-.6.4.9.4v.6c0,0,.3.4.3.4l-.4.6.2.4-.2.5.6.9-.4.2-.6-.3.6.6v.5c0,0,.3.7.3.7l-.8.2.6.6-.2.6-.6-.2v.2c0,0,.2.3.2.3h.5c0,0-.7.6-.7.6l.6.6v.5l-.9-.3-.3.2.8.6-.4.6.3.5h-.4l-.5.4h-.6l.2.3.5-.2.2.5-.3.2-.3.8-.3.3-.5-.3.4.5-.2.6-.8-.3-.4.2.5.5-.8,1.2h-.4c0,0-.5-.6-.5-.6l-.3.2v.4h.4l-.2.5.2.5h-.3l-.2-.3v.4c0,0-1.9,1.1-1.9,1.1h-.7c0,0-.5.4-.5.4l-.6-.2-.6.3h-.4c0,0-.6.5-.6.5l-.9-.5-.6.3-.8-.3-.7.2-.6-.3h-.5c0,0-1.1-.2-1.1-.2l-.3-.3-1.3-.2-.4-.5h-.4c0,0-1.1-1-1.1-1v-.3l-.6-.4-.3-.6-.6-.5-.2-.5-.6-.5v-.5l-.4-.6.6-.2-.2-.2h-.4c0,0-.6-.8-.6-.8h-.3c0,0,0-.8,0-.8l.2-.3-.7-.5.4-.6v-.7l-.9-.7.3-.6-.6-.5.5-.5-.2-.4v-.4c0,0-.4-.5-.4-.5v-.4c0,0,0-.9,0-.9v-1.5c0,0-.2-.5-.2-.5v-1.6l.2-.3v-.7c0,0,.2-.6.2-.6l-.4-.4.4-.5-.3-.6.2-.4.4-.2-.4-.2.3-.5-.2-.4v-.6c0,0,.5,0,.5,0l-.3-.6v-.3c0,0,0-.7,0-.7l.3-.7v-1.5l.4-1.3v-.4c0,0,.2-.3.2-.3l.3.2.3-.3h.8l.3.5h.8c0,0,.6.5.6.5h.7l.3.4.9.2.4.3.2.6-.2.4.2.8-.4.4.2.3v1.1l-.4.4v1.1l-.4.2.3.6v.5c0,0,.2.3.2.3l-.4.7.2,1.2-.3.4.2.6-.2.5.3.7-.3.4v.8c0,0,.4.6.4.6v.3h-.6l.6.6-.3.5.6.6-.3.4.4.5-.3.4.4.4.2,1,.6.3v.4c0,0-.5.3-.5.3l.3.2h.5v.5c0,0,0,.4,0,.4l1,1.4v.5c0,0,.7.4.7.4l.2.5h.4c0,0,0,.4,0,.4h.2c0,0,2,.2,2,.2l.3-.2.8.2.7-.2.8.3v-.4l.7-.2.5-.6.8-.2-.4-.5.2-.3.6-.2-.2-.3.4-.6h.6v-.2c0,0-.3-.7-.3-.7l.6-.5v-.6c0,0,.4-.4.4-.4l-.2-.4.4-.5-.5-.5v-.4c0,0,.5-.2.5-.2l-.3-.4.3-.5-.6-.6.6-.7-.3-.5.4-.4-.8-.6.7-.6-.4-.3.4-.3-.2-.3h-.4c0,0,0-.6,0-.6l.5-.5-.2-.2h-.6l.3-.5h.5l-.9-.6v-.7c0,0-.2-.3-.2-.3l.5-.6-.2-.3h-.7c0,0,.4-.7.4-.7l-.2-.4.5-.6h-.6l-.3-.2.3-.8h-.6l-.3-.3.4-.7-.3-.4.3-.3-1.1-.6.6-.4v-.3c0,0-.7.2-.7.2l-.3-.7.2-.4-.3-.3-.3.2-.5-.4.8-.4.7.2.5-.4-.2-.2-.5.3h-.7c0,0-.3-.3-.3-.3h-.8v-.4c0,0,.3-.6.3-.6l-.2-.3h-.5c0,0-.3,0-.3,0l.5-.6-.6-.4h-.6l.2-.4h.8l1-.4-.3-.2-.7.2-1.1-.5h-.4l.2-.6-.5-.5-.4.3-.3-.3.4-.6-.3-.3h-.4l-.6-.3h1.1l.8-.4-.6-.4-.6.3-.6-.4.3-.3.7-.3-.5-.3-.5.3-.7-.4h-.4c0,0-.4,0-.4,0v-.3l.3-.3-.4-.6.9-.6-.2-.2-1,.4-.5-.6-.5.2-.2-.4.3-.4-.5-.5h-.5l.2-1.2-.2-.3-.6.2-.3-.8-.4-.2-.3.3v-.6l-.6-.3v-.2ZM186.4,115.3v-.3c0,0,.2,0,.2,0v.4c0,0-.2,0-.2,0ZM186.7,71.1h-.2c0,0,.2-.2.2-.2v.2ZM187.5,73.9v.4c0,0-.5-.2-.5-.2l.3-.6.2.4ZM187.7,66.5v-.2c0,0-.3.2-.3.2h.3ZM187.8,68.5l-.2-.3-.3.2h.5ZM188.4,64.7h-.3c0,0,0,.2,0,.2l.3-.2ZM188.1,74.3l.2.3h.4c0,0,.6-.4.6-.4h-.3c0,0-.2,0-.2,0h-.7ZM188.7,63.6l-.2-.3-.2.2.3.2h0ZM188.6,67.7h.3c0,0-.3-.4-.3-.4l-.3.3h.3ZM189,62l.2-.2h-.5v.3h.3ZM189.2,62.5l-.2-.2-.3.4.3.2h.7c0,0-.3-.2-.3-.2l-.3-.2ZM189.4,67.7h-.6l.3.2.3-.2ZM189.2,60.4h-.3l.5.6h.6c0,0-.5-.4-.5-.4l-.3-.2ZM189.2,68.7h.3l-.2-.4h-.4c0,0,.3.4.3.4ZM189.2,77.6v-.2h-.3c0,0,.3.2.3.2ZM189.4,72.5v-.2h-.2l.2.2ZM190.2,71.4l-.3-.3-.4.2v.3c0,0,.6-.2.6-.2ZM190,59.8v-.3c0,0-.3,0-.3,0l-.2.2h.5ZM190.4,65.8l-.4-.5h-.4l-.2.3h.6v.2h.3ZM190,67.5l-.3-.2-.2.3h.5ZM189.9,73.6h.3c0,0-.2-.4-.2-.4h-.4v.4h.3ZM190.1,77.6l.2-.3h-.3c0,0-.2.2-.2.2h.3ZM190,74.7l.4-.2,1.1.2h.8v-.4h-.4c0,0-.7.2-.7.2l-.6-.4-.5.4-.2.2ZM190.5,68.7l.3-.3-.4-.2-.2.4h.3ZM190.9,71.3l-.6.3h.8l.3-.3-.3-.2-.3.2ZM190.6,58.9l.5.6v-.9c0,0-.6,0-.6,0l.2.2ZM190.7,60.9l.4.2h.4c0,0,0-.4,0-.4l-.6-.3-.3.2.3.3ZM190.6,66.6v-.3c0,0-.2.3-.2.3h.2ZM190.7,75.6h.8c0,0,.2-.5.2-.5h-.3c0,0-.9.3-.9.3l.2.2ZM191,77.7h.4c0,0,.2-.4.2-.4h-.6l-.2.3h.3ZM191,63.8h.4c0,0,.2-.2.2-.2l-.3-.2-.3.3h0ZM191.3,69.2l-.3.2h.3c0,0,0-.2,0-.2ZM191.3,81.4h.3v-.4c0,0-.4,0-.4,0l-.2.4h.3ZM191.4,73.6h.3v-.2h-.3c0,0-.3,0-.3,0h.3ZM191.6,80.6l.3-.5h-.5l-.3.3.5.2ZM191.4,70.6h.7v-.4c0,0-.6.3-.6.3h-.2ZM191.6,72.7l.7-.4-.3-.3h-.3l-.4.3v.3c0,0,.2,0,.2,0ZM191.7,82.5h.4c0,0-.2-.5-.2-.5l-.5.5h.3ZM192.1,58l-.3-.2-.2.2h.5ZM191.8,66.4h.2-.3c0,0,0,0,0,0ZM191.9,61.9v-.2c0,0,0,.2,0,.2h0ZM192.1,77.7l.9-.2-.2-.4-1,.3.3.3ZM192.2,64.4h-.3c0,0,0,.2,0,.2l.3-.2ZM192,81.6l.6-.2-.5-.2v.3c0,0,0,0,0,0ZM192.7,79.4v-.2c0,0-.2.2-.2.2h.2ZM192.8,73.6h.3c0,0,0-.5,0-.5h-.2c0,0-.3.3-.3.3l.3.2ZM193.3,74.2l-.6.2v.4c0,0,1-.2,1-.2l-.2-.4h-.3ZM193.1,75.4l-.3-.3-.2.3h.5ZM193.5,80.1h-.5l-.3.3.5.4.5-.4-.2-.3ZM193.4,78.4h.3l-.3-.2v.2ZM193.8,85.3h-.3c0,0,0,.4,0,.4l.2-.4ZM193.8,79.8h.4c0,0,.2-.4.2-.4h-.7c0,0,.2.4.2.4ZM194,81.6l.4-.2-.3-.2-.5.4h.4ZM195,80.3h-.3v.3l.3-.3ZM195.1,82.6v-.2h-.2c0,0,.2.2.2.2ZM195.1,81.6l.3.3.5-.6h-.8c0,0,0,.4,0,.4ZM195.1,87.6l.7-.5h-.3c0,0-.6.2-.6.2l.2.3ZM195.2,79.8h.4c0,0,.2-.5.2-.5h-.7c0,0,.2.5.2.5ZM195.5,88.8h-.2v-.4c0,0,.2.4.2.4ZM195.8,85.4h.4c0,0-.4-.3-.4-.3l-.3.2h.3ZM195.8,80.5v.2c0,0,.6-.3.6-.3l.4.2v-.4l-.5-.2-.5.5ZM196.4,82.7v-.3c0,0-.3,0-.3,0v.5c0,0,.3,0,.3,0ZM196.4,84.5l.2-.3h-.4l-.2.3h.4ZM196.4,86.4l.2-.3h-.4c0,0-.2.3-.2.3h.4ZM197.2,87.6l.6-.3-.4-.2h-.5c0,0,0,.5,0,.5h.4ZM197.3,55.5h-.3c0,0,0,0,0,0h.2ZM197.2,85.4h0l-.3-.2.2.2ZM197.8,86.3h-.6c0,0,0,.4,0,.4h.6c0,0,.3-.3.3-.3h-.3ZM197.5,88.7h.5c0,0,.2-.5.2-.5l-.7.2v.3ZM197.4,90.3l.3.4.5-.6-.2-.2-.6.4ZM198.1,89.5l.3.2.7-.5-.5-.3-.6.6ZM198.5,87.6l.3-.2v-.4c0,0-.5.2-.5.2v.3c0,0,.2,0,.2,0ZM198.7,85.4h.4c0,0-.3-.3-.3-.3l-.4.2v.3l.3-.2ZM198.7,91.4l.2-.2h-.3c0,0-.2.2-.2.2h.3ZM199.5,90.4l.3-.3h-.6v.3c0,0,.4,0,.4,0ZM199.9,89.5l.6-.2-.3-.3-.5.2-.2.3h.3ZM200.4,87.6v-.3h-.5l-.2.3h.6ZM200.3,91.5l.2-.2-.2-.2h-.4c0,0,0,.5,0,.5h.5ZM200.4,92.7l1-.3v-.4c0,0-1.2.4-1.2.4l.2.3ZM200.7,88.6l.3-.3-.6.2h.4ZM200.7,90.5h.5c0,0,.2-.3.2-.3h-.8l-.2.3h.4ZM200.6,94.4v.2c0,0,.5-.2.5-.2v-.3h-.4v.3ZM201,89.4l-.2.2h.4c0,0,.6-.3.6-.3h-.3c0,0-.3,0-.3,0h-.3ZM201.2,91.7l.8-.3-.3-.3h-.4l-.6.5h.4ZM201.5,99.1h-.3c0,0,.3-.2.3-.2v.2ZM201.8,93.7l-.3-.4-.2.3h.5ZM201.8,92.8h.3l.6-.6-.3-.2-.9.4.3.4ZM202.1,90.7h.7c0,0-.2-.5-.2-.5h-.4c0,0-.4,0-.4,0v.3c0,0,.2,0,.2,0ZM202,96.9h.4c0,0,0-.6,0-.6h-.4c0,0-.2.5-.2.5h0ZM202.7,91.8l.5-.6-.7.3.3.3ZM202.9,95.6v-.3c0,0-.4.2-.4.2h.4ZM202.7,99.7v-.2.2c0,0,0,0,0,0ZM202.8,88.1l.4.3-.3.2v-.5ZM203.5,93.7l.2-.2-.4-.2-.2.4h.4ZM203.3,92.7h0c0,0,0,0,0,0h0ZM203.4,56.8h0c0,0,0,0,0,0h0ZM203.8,94.7v-.3c0,0-.3,0-.3,0v.3c0,0,.3,0,.3,0ZM203.5,100.6h.6v-.3c0,0-.3,0-.3,0l-.4.3h0ZM203.8,57.9l-.2.3.7-.2v-.3l-.4-.2-.2.4ZM204.2,98.6v-.2h-.5v.3h.5ZM204.2,93.8h.5c0,0,.3-.4.3-.4l-.5-.4-.6.6h.4ZM204.2,117.2h-.2l.2.3v-.3ZM204.4,95.7l.5-.5h-.4l-.2.3v.2ZM205,105.4v-.3c0,0-.2,0-.2,0l.2.3ZM205.1,108.3h-.2c0,0,0,.2,0,.2l.2-.2ZM205.4,94.7l.4-.2-.2-.2h-.4l-.2.2.4.2ZM205.4,96.6v-.3c0,0-.3.2-.3.2h.3ZM205.4,100.4h-.2c0,0,0,0,0,0h.2ZM205.4,117.3l.2.2h.2c0,0-.2-.4-.2-.4h-.4c0,0,.2.2.2.2ZM205.6,104.6l.3-.3h-.5c0,0,.2.3.2.3ZM205.5,95.8h.5l.2-.4h-.4c0,0-.3.3-.3.3h0ZM206.3,67.7l-.2-.2v.3c0,0,.2,0,.2,0ZM206.3,97.5v-.3c0,0-.4,0-.4,0v.6l.4-.3ZM206.7,112.4l-.2-.2h-.3c0,0,.5.2.5.2ZM206.5,113.3h.4c0,0-.5-.5-.5-.5l-.2.3.3.2ZM207.3,98.7v-.3l-.3-.2-.2.3.5.2ZM207.1,106.3h.3l-.3-.3-.3.2h.3ZM207.4,108.2l-.2-.2-.2.2h.4ZM207.4,111.9h-.2l.2.3v-.3ZM208.1,104.4l-.4.5,1.2-.4-.3-.3h-.3l-.3.2ZM208,110.6v-.3c0,0-.2,0-.2,0l.2.3ZM208.2,113.1l-.4-.2.2.4.2-.2ZM208.6,103.9v-.2c0,0,0-.2,0-.2h-.3c0,0,.4.4.4.4ZM208.6,106.5h.4c0,0-.4-.3-.4-.3l-.3.2h.3ZM208.8,110.3l-.2-.3-.3.2h.5ZM208.6,113.5h.4l-.2-.3h-.3c0,0,0,.3,0,.3ZM209.2,110.4h-.3l.2.2v-.2ZM209.3,108.7l.3-.3h-.3c0,0-.3,0-.3,0l.3.2Z"/>
      <path class="st2" d="M232.7,58.3l-.2.5.4.4-.3,1.5.2.3-.2,1.7.2.8-.2.5v1.5l-.3.4v1c0,0,.4.3.4.3h.3l.3.3.6.2.6-.4.6.6.6-.6.6.4,1.2-.4.7.4.5-.3h.4l.6.7.3-.3v-.5c0,0,.5,0,.5,0l.5.7.3-.2.3-.6.6.4.4.6v-.4c0,0,.6-.5.6-.5h.4l.5.9h.4c0,0,.3-.9.3-.9l1,.7.4-.6h.5c0,0,.6.5.6.5l.8-.5.3.6.6.2v.4l-.3.3.3,1.5-.2.2.2.5v1.5h-.3c0,0,.4.6.4.6l-.2.8h-.4c0,0-.3-.2-.3-.2h-.5c0,0-.4.4-.4.4h-.4c0,0-.2-.6-.2-.6l-.5.4h-.6c0,0,0-.5,0-.5l.4-.2v-.5h-.3c0,0-.7.6-.7.6v.5h-.7c0,0-.2-.4-.2-.4h-.4l-.3.3h-.6c0,0,0-.5,0-.5l-.4-.2h-.3c0,0-.3.6-.3.6h-.4l-.4-.7h-.6v.6c0,0-.3,0-.3,0l-.3-.2-.3-.6-.6.3v.5l-.2.2-.4-.4-1-.3h-.3c0,0-.3.6-.3.6l-.5-.6-.3.3.2.4-1.4-.5-1,.3-.5-.5h-.3l-.2.4h-.4c0,0-.3.2-.3.2l.2,1.7-.3.5.2,1-.2.5v2.4c0,0,0,.4,0,.4l-.4.2v.3c0,0,.6,0,.6,0l-.2.6-.4-.2.4.7-.5.6.4.3-.5.5.5.5-.2.6h-.4c0,0-.3-.4-.3-.4h-.3c0,0,0,.4,0,.4l.2.3,1.1.3-.6.6.6.5v.4c0,0,0,.6,0,.6v.3h-.6v.4c0,0,.6.4.6.4l-.3.5.3.5-.5.4.5.6-.4.5-.6-.5-.4.2.2.3.6.4-.2.5.6.6v.5h-.4v.5l-.3.5.2.3h.4v1.2l-.3.5.4.6-.4.6.5.4-.6.3.5.6v1.3c0,0,0,.4,0,.4l.2,1.5-.2.4.3,1.8-.2,1.7v.4c0,0,0,1,0,1l.2.8-.2.5v1.5l.2.8-.2.4.2.5-.5.3.4.5.3,1.2-.3.4.3,1.6-.2.5.4.5-.3.5.8.6v.4c0,0,.6.4.6.4v.8l.6.4v.5l.7.4v.5l.8.6h.8c0,0,1.3.6,1.3.6h0c0,0,.3.3.3.3v.6c0,0,.4-.2.4-.2l-.5-.9.6-.3h.4c0,0,.4-.4.4-.4l.6.2.3.3h.3c0,0-.4-.6-.4-.6v-.4l.3-.3h.3c0,0,.5.6.5.6v.4c0,0,.5.2.5.2l-.2-1-.3-.2-.2-.7h.4l.6.4.4-.3-.2-.5h-.5v-.7l.7.4.3-.2-.4-.6v-.4l.6-1,.2-.8.6-.2-.5-.5v-.4c0,0,0-.2,0-.2l.7.3.2-.3-.7-.5v-.4c0,0,0-.3,0-.3v-.5l.4-.6v-2.6c0,0,.3-.3.3-.3l-.2-.4.2-.2h.4l.2-.3-.7-.4v-.9c0,0,0-.3,0-.3h.3c0,0-.2.5-.2.5h.6c0,0,0,.5,0,.5l.4.2-.4.4h.6c0,0,.3.4.3.4l.3-.3h-.5l-.4-.5.5-.4h.5c0,0-.2-.9-.2-.9l-.9-.4-.3.3-.6-.2-.2-.3v-1.1h.6l-.2-.4-.4-.2v-.4c0,0,0-.3,0-.3h.5c0,0,.6.2.6.2h.3c0,0-.7-.6-.7-.6v-.6l.6-.6h-.2c0,0-.6.2-.6.2l-.6-.4v-.4l-.6-.8.3-.2.7.4.3-.3-.6-.5v-.5c0,0,.5,0,.5,0l.6.4.3-.5h-.5l-.3-.3h-1.2c0,0-.2-.2-.2-.2l.3-.6-.2-.5.4.2.6-.4.7.6.6-.6.8.5-.2.4h.5c0,0,.2-.7.2-.7l-.8-.6.3-.5h.4l.7.4.7-.4h.3c0,0,0,.4,0,.4l-.4.5-.9-.2.6.9-.8.5.2.6.4.2.2.7.6.4.2.5-.3.2-.8-.2v-.7h-.5c0,0-.5-1-.5-1l-.3.2.4.7.6.6-.2.3.8.7v.3c0,0,.4,0,.4,0v-.4c0,0,.6-.4.6-.4l.4.2-.2.4-.4.2-.2.7-.3.3-.7-.2h-.6c0,0-1.1,0-1.1,0l-.2.2.9.6.6-.5.9.7.9-.6v.9h-.7c0,0,.5.6.5.6l-.5.3h-.6v.4l.4.4-.2.3h.4c0,0,0,.7,0,.7l-.3.2h-.5c0,0,.7,1.3.7,1.3v.7c0,0-1-.4-1-.4l.5.9-.8.5.2.3.6-.3h.5l.2.9.6.6-.2.3-.6.3v.6l.6.7-.2.4h-.3c0,0-.3,0-.3,0l-.2-.7-.7-.5h-.4c0,0,.6.8.6.8v.3l.6.5v.5l-.7.2v.5c0,0,.5.2.5.2l-.2.4.4.3v.5l-.3.3-.5-.4-.4.3.5.6.2.6-.5.8v.5l-.2.3-.4-.2-.4.4.4.5v.3c0,0-.7,0-.7,0l-.2.3.3.8h-.6l-.2-.6-.7-.5-.4.2.9.6-.4.4.3.2.3.6-.4.4-.4-.5-.2.3.3.6-.2.2h-.8v.6h-.4c0,0-.2-.5-.2-.5l-.9-.2.5.6-.2.3h-.5c0,0-.4-.4-.4-.4l-.3.2,1,.7-.4.2v.4l-.5-.3-.6.7h-.4l-.6-.3-.5.6h-.5l-.3.3-1.8-.4-.2.3-.6-.6h-.4l-.3-.3-.5.6h-.4c0,0-.5-.8-.5-.8l-.4.2-.7-.2-.6-.6-1.1-.4-1-1.1-.4-.6-.4-.2v-.4l-.5-.4v-.4c0,0-.7-.6-.7-.6l-.2-.8-1.3-3.1v-.8c0,0-.4-.6-.4-.6v-.7c0,0,0-.5,0-.5l-.4-.6.2-1.3v-.5c0,0,.2-.5.2-.5l-.4-.4-.2-1.4.2-1-.2-.4.2-.9v-.5c0,0,0-.4,0-.4l-.3-.3.2-.6-.2-1.7.2-1.3-.2-.4.2-1.2-.3-.6.3-1.3-.2-.3v-1.7c0,0,0-.6,0-.6l.4-1.1-.3-1.3.5-.6v-.4c0,0,.5-.4.5-.4l.2-.6-.3-.2-.5.6-.2-.6.3-.3-.3-1.5.2-.3h.5c0,0-.4-.9-.4-.9l.6-.4-.2-.2h-.5c0,0,0-.3,0-.3h.7c0,0-.6-.7-.6-.7l.2-.4-.5-.6v-.3c0,0,.6,0,.6,0l-.4-.6.2-.5-.2-.7v-1.5l.2-.7v-2.7l.3-.6-.3-.2.4-.5-.4-.5v-2l.2-.4v-.7c0,0-.3-.3-.3-.3h-.5l-1-.4-.3-.6-.3.6h-3l.6-.5-.2-1.4-.4-.9.3-.7-.4-1.4.5-.7h.9c0,0,.8,0,.8,0l.4-.2.2.5.3-.4h1.9c0,0,.3,0,.3,0v-.4c0,0,.6-.5.6-.5l-.3-.4.2-1.9-.2-.6.5-1.1-.3-1.1v-2.3c0,0,0-.4,0-.4l-.4-1.5.5-.8,1-.2.9.3.8-.2.4.2h1.5c0,0,.3.3.3.3h.3c0,0,.3,0,.3,0l.4.6-.5.6.2.5ZM232.8,117.8v-.2c0,0-.2.2-.2.2h.2ZM234.2,68.2v-.2c0,0,0,0,0,0h0ZM238.3,124.4l.2-.3h-.4l.2.3ZM238.7,119.9h.6c0,0-.2-.4-.2-.4h-.3l-.2.3h0ZM242.5,87.8l-.6.5.2.4h-1v-.4c0,0,.6-.3.6-.3v-.3c0,0,.6,0,.6,0l.3-.2.2.2-.3.2ZM243.2,89.7l.2-.3,1,.3-.2.4,1,.6.8-.2.4.3-.6.3v.4c0,0,0,.3,0,.3l.5-.3.5.4-.6.5.3.3h1.1v.3c0,0,0,.4,0,.4h-.3c0,0-.6-.4-.6-.4l-.6.5-1.1-.4-.3.3h-.6c0,0,0-.3,0-.3l-.6.2.3.3h.4c0,0,.3.5.3.5l-.8.5.2.3.9-.3.5.4-.4.6-1.4-.3-.6-.4.6-.6-.3-.4v-.4c0,0-.5-.6-.5-.6v-.4c0,0,.7,0,.7,0l.5.4.6-.4,1,.2.6-.5h-1l-.2-.3.6-.7-1.2.3-.6-.2.8.7-.3.2h-.7v-.6c0,0-.6,0-.6,0l.3.4-.3.3h-.3l-.4-.6.3-.4-.2-.3h.4c0,0,0-.6,0-.6h-.3c0,0-.4-.2-.4-.2v-.4c0,0,.3,0,.3,0l.9.6.2-.2ZM242.2,118.3l.2.4.2-.3-.6-.3v.3h.3ZM243.4,88.7l-.3.5h-.5c0,0-.3-.4-.3-.4l.2-.4.6-.3.2.6ZM242.9,121.3l.5.4v-.3c0,0,0-.4,0-.4l-.6-.2-.2.2.5.3ZM242.8,93.6h-.3,0c0,0,.2,0,.2,0ZM242.8,119.2h0c0,0-.2,0-.2,0h.2ZM242.8,115.1v.2c0,0,.6.5.6.5h.4c0,0-.2-.4-.2-.4h-.4l-.4-.3ZM243.1,120.3l.8.4.2-.3-.2-.3-.6-.2-.3.3h0ZM243.9,87.7l-.2.2h-.6l.6-.5.6.3h-.5ZM245.7,95.7l-.3.3h-.7c0,0-.3-.2-.3-.2l-1.2.5v-.7c0,0,.4-.4.4-.4h.4l.5.4.4-.3h.5l.5.5ZM243.3,114.4l.8.4.2-.2-.6-.5h-.5c0,0,0,.3,0,.3ZM243.4,90.6h.5l.2-.4h-.4c0,0-.4.2-.4.2v.2ZM243.4,117.5h0c0,0,0,0,0,0h0ZM243.5,118.4l.3.3h.3v-.4c0,0-.6-.2-.6-.2v.3ZM244.2,101.6h-.6v-.6h.3l.5.6h0ZM243.8,97.1l.4.3.3-.3-.7-.3v.3ZM244.6,88.8h.8c0,0,.3-.4.3-.4h.3c0,0,0,.5,0,.5l-.2.2-.6-.3-.3.2h-.3c0,0-.6,0-.6,0l-.3-.3.4-.5h.4v.5ZM244.3,110.7h0c0,0-.4,0-.4,0h.4ZM244.3,108.6l-.3.2.4.3v-.5ZM244.3,113.2h-.2v.2l.2-.2ZM246.9,93.8l-.6.2-.6-.3-.7.4-.4-.4v-.3c0,0,.8,0,.8,0l.4.2.6-.2.7.2v.2c0,0-.2,0-.2,0ZM244.7,104.2h.4c0,0,.3-.2.3-.2l-.2-.3h-.6l.2.5ZM244.8,90l-.2-.3.3-.3h.4l.3.3-.6.5-.2-.2ZM245.1,99.9h-.3c0,0-.2,0-.2,0l.3.2.2-.3ZM245,103l.7.5.2-.3h.6v-.3c0,0,0-.4,0-.4l-1.1.4-.5-.4-.3.3.4.2ZM245.3,105.7h-.6v-.8h.4c0,0,.6.6.6.6l-.3.3ZM245,107.9v-.3c0,0-.4.2-.4.2h.4ZM244.9,110l.2-.2-.3-.2h-.2c0,0,.3.4.3.4ZM244.8,88.3v-.6c0,0,.2-.3.2-.3l.4.2.2.4-.7.4ZM245.2,98.9l-.3-.3-.2.3h.5ZM245.3,114.8h.4c0,0,0-.3,0-.3l-.3-.2-.3.4h0ZM245.6,116.6h-.4l.3.2v-.2ZM245.8,95h-.4c0,0,0-.5,0-.5l.8-.2.2.3-.2.6-.4-.2ZM245.7,97.6l-.4.4h.6v-.4c0,0,.3-.5.3-.5h-.5c0,0-.2.2-.2.2l.2.3ZM245.4,99.3h.4c0,0,.3-.2.3-.2h-.7c0,0,0,.2,0,.2ZM246.1,87.4h-.5c0,0-.3-.4-.3-.4l.3-.2.6.2-.2.4ZM245.6,99.7h-.2v.3l.2-.3ZM245.9,107.6v-.3h-.5v.2h.5ZM245.6,110.8l.3-.2h-.3c0,0-.2,0-.2,0h.2ZM245.9,101.2v-.4c0,0-.4.2-.4.2l.4.2ZM245.9,109.7l-.2-.2-.2.2h.4ZM245.9,117.2h-.3c0,0,0,.2,0,.2l.6.5.4-.2-.5-.2-.2-.3ZM246.8,90.1h-.6l-.2-.4h.9v.4ZM246.2,106.1h.4v-.3h-.6l.3.3ZM246.2,113.8h.3l-.3-.4-.3.2.3.2ZM246.1,114.6l.6.4h.4l-.4-.6h-.8l.2.3ZM246.4,108.2l.2-.2-.3-.3-.3.3.4.2ZM246,109.8h.3c0,0,0,0,0,0h-.3ZM246.3,115.9l.2-.2h-.4c0,0,.2.2.2.2ZM246.9,87.5l-.2.2v.4l-.2-.2-.3.2.5-.6h.2ZM246.5,104h-.3v.2c0,0,.3-.2.3-.2ZM246.6,116.5l.2.3h.4c0,0,0,0,0,0l-.2-.3h-.4l-.2-.2-.3.2h.4ZM246.4,99.9h0l.2.4v-.4ZM246.7,110.9h.3c0,0,.3,0,.3,0l-.7-.3v.2c0,0,.2.2.2.2ZM246.6,101.1l.6.2.3-.3-.2-.2h-.6c0,0,0,.3,0,.3ZM246.9,105.3h.4l.2-.4h-.6c0,0-.2.2-.2.2l.3.2ZM247,113l.3-.3-.3-.2-.3.3.3.2ZM247.3,89.2h-.4l-.2-.2.3-.3.4.2v.3ZM247.6,90.9l-.4.2-.4-.3.6-.3v.4ZM247.3,95l-.3.2-.2-.6.3-.2h.4c0,0,0,.6,0,.6h-.3ZM247.2,106.9h-.2c0,0,0,0,0,0h.2ZM247.3,68.8l.2.3.3-.3-.4-.6-.2.4v.3ZM247.3,109.9l.2.3h.4l.2-.4-.8-.2v.3ZM248.7,97.1l-.4.2v.5c0,0-.2.3-.2.3l-.6.2-.2-.4.4-.6h.6v-.4c0,0,.2-.2.2-.2l.5.2-.2.3ZM248.2,92l-.3.2-.5-.2.5-.5h.3v.5ZM248.2,93.5l.2.4-.3.3h-.5l-.2-.4.2-.3h.4c0,0,.2,0,.2,0ZM248.3,114.4h-.4c0,0,0-.5,0-.5h.3c0,0,.3,0,.3,0l-.3.4ZM248.9,108.3v.4l.5.8-.3.2-.6-.3.3-.6h-.6c0,0-.2-.7-.2-.7h.6c0,0,.2.2.2.2ZM248.6,98.9h-.4c0,0,0-.4,0-.4l.3-.3h.3c0,0,.2.5.2.5l-.3.2ZM248.2,104.9v-.8c0,0,.6,0,.6,0l.3.3.4,1-.5.2-.2-.7h-.5c0,0,0,0,0,0ZM248.3,106.7v-.5c0,0,0-.3,0-.3l.5.3v.5h-.6ZM248.3,95l.2-.3h.3l-.2.5-.3-.2ZM248.6,111.3v-.3c0,0,.3,0,.3,0v.4l-.3-.2ZM249.2,103.8l-.4-.2.3-.4.4.2-.3.4ZM249.4,107.3v.3c0,0-.3,0-.3,0l-.3-.2v-.3h.4c0,0,.2,0,.2,0ZM249.2,97.9h-.3c0,0,.2-.5.2-.5v.5ZM249.1,101.4h.2c0,0,.2.2.2.2l-.2.2h-.4c0,0,.2-.4.2-.4ZM249,99.8v-.3c0,0,.4,0,.4,0v.3h-.4Z"/>
      <path class="st2" d="M262.2,58.8l-.2.3-.2-.3.3-.2v.2ZM267.8,53.9h0c0,0,0,0,0,0h.4l.5-.4h.4l.4.5h.7c0,0,0,.3,0,.3l.7.5.2.5.6.2.2.7.6.2.2.3-.3.3.6.5v.4c0,0-.6,0-.6,0v.3c0,0,.7.4.7.4v.6c0,0,.2.5.2.5l-.3.6v.4c0,0-.2.6-.2.6l-.5-.4-.3.2.3,1v.6c0,0-.5,0-.5,0l.3-.5-.6-.4v1.2c0,0-.4,0-.4,0l-.3.2v.8l-.8-.2v.7c0,0-.6.2-.6.2l-.2-.6h-.4c0,0-.4.7-.4.7h-1c0,0,.4-.3.4-.3l-.5-.6-.3.3v.5l-.9-.6v.5h-.2c0,0-.6-.2-.6-.2v-.9c0,0-.6.2-.6.2h-.4c0,0,0-.4,0-.4h-.6c0,0,.2-.5.2-.5l-.3-.6.3-.4-.5-.3v.3c0,0,.2.3.2.3l-.2.2h-.6l-.3-.2.3-.4v-.6c0,0,.5,0,.5,0v-.6c0,0-.2-.2-.2-.2l-.5.4-.4-.2v-.3c0,0,0-.4,0-.4h.3c0,0,.5.2.5.2v-.3l-.6-.6v-.6c0,0-.4,0-.4,0v-.6c0,0,.7,0,.7,0v.5l.6.3-.3-.6h-.3c0,0,0-.5,0-.5l-.3-.5v-.4h.8c0,0,.4,0,.4,0l-.6-.6v-.3c0,0,.9.3.9.3l.4-.2-.2-.4-.6-.4.3-.2.7.2,1.1-.6v-.5c0,0,.8-.4.8-.4l.3.3h.6c0,0,0-.2,0-.2ZM262.9,56.5h.4l-.4-.3v.3ZM263.1,108.2h-.2c0,0,0-.4,0-.4h.6l-.6.4ZM268.3,99.1h.5c0,0,.3,1.9.3,1.9l-.2.3v1.1h-.9l.2.3h.6c0,0-.2.5-.2.5l.3.9-.2.3-.7-.5-.3.3,1,.7-.2.4.4,1h-.6c0,0,0,.5,0,.5l.3.2-.3.4.2.5.3.2v.5h-.3c0,0-.6-.2-.6-.2l-.3.2.6.6-.2.6h-.4c0,0-.4-.7-.4-.7l-.6-.5-.2-.4.3-.2h.7c0,0,0-.6,0-.6l-.3-.3-1,.4-.5-.5-.3.5.6.6v.5l-.3.2-.7-.5-.4.2.5.5.6.3.3-.3h.8v.4c0,0,0,.3,0,.3l-.9-.3-.4.4.6.5h.8c0,0,.3-.2.3-.2l.7.4-.6.7-.7-.6-1,.6.3.3.5-.2.8.2-.3.6.3.2h.8c0,0-.5-.6-.5-.6v-.4c0,0,1.1.2,1.1.2l-.4.4.6.6v.4c0,0-.2.3-.2.3l-.8-.5-.2.3.2.3h.3l.4.6v.5c0,0,.5.5.5.5v.5l-.2.2h-.4l-.4-.5-.5.6h.5l.3.3h.3l-.5.7h-.4c0,0-.6-.6-.6-.6h-.2c0,0-.2.8-.2.8l.9.5v.3c0,0,.6.9.6.9v.3c0,0-1-.6-1-.6v-.4l-.6-.5-.6.4h-.5l-.7-.4-.2.4,1,.3.4-.2.4.3h.7c0,0-.5.6-.5.6l-.9-.3-.3.2.2.3.6.3.9-.2.3.2h1.1c0,0,.2.2.2.2v.5h-.4c0,0-.6-.3-.6-.3l-.3.5,1,.6v.4c0,0-.4,0-.4,0l-.6-.3-.2-.4v-.4c0,0-.9-.6-.9-.6l-.5.5h-.6c0,0-.4-.6-.4-.6l-.6.6-.6-.4v-.5l.4-.2.7.2v-.2c0,0-.6-.6-.6-.6l.2-.4-.6-.6v-.4l.7.2v-.7l-.5-.5h-.3c0,0,.5-.4.5-.4l-.6-.6h0c0,0,.4-.6.4-.6l-.6.2-.6-.5v-.4c0,0,0-.3,0-.3h.6c0,0,.4,0,.4,0l.5-.3,1,.4-.4.8.8.5h1.3l.4-.2-.4-.5v-.8c0,0-.6-.4-.6-.4v-.6c0,0-.8-.5-.8-.5h-.6c0,0,.3.4.3.4h.5c0,0,.3.4.3.4l-.8.5-.6-.6-.4.5h-.6v-.6c0,0,.5-.2.5-.2l-.2-.4-.6.3-.5-.3v-.5c0,0,.8.2.8.2l.6-.3.4.2h.4c0,0-.2-.9-.2-.9l.2-.3-.3-.2h-.5l-.6-.6.2-.4-.6-.6.9-.7-.2-.7-.9-.5h-.5v-.3c0,0,.6-.3.6-.3l-.4-.4v-.4c0,0,0-.4,0-.4h.4c0,0,.3.5.3.5l.3-.4-.6-.7.2-.3.6-.2-.2-.3-.6.3h-.3c0,0,0-.4,0-.4l.2-.3h.6c0,0-.8-.8-.8-.8l.6-.4h.5v-.4c0,0-.3-.3-.3-.3l-.3.5h-.4c0,0,0-.5,0-.5l.6-.3v-1.2l-.3-.5.2-.9-.3-1.2.3-.6v-.8l.7-.4-.6-.4.3-.4-.4-.7.5-.9-.2-.5v-.2c0,0-.2-.7-.2-.7v-.7c0,0,.5-.7.5-.7l-.5-.6v-.4l.4-.3-.3-1.6.2-.6v-.6c0,0,.5-.5.5-.5v-.3c0,0,0-.2,0-.2h-.5v-1.7l-.3-.7.4-.9-.2-1v-1.6c0,0,.4-.2.4-.2l-.2-.5.3-.4-.4-.7.4-.7v-.8c0,0,0-.5,0-.5v-2c0,0,0-.4,0-.4h.3l.2-.3-.2-.3h-.4v-.6h2.1c0,0,.4-.4.4-.4l.9.4.3-.2h1.5c0,0,.2.6.2.6l-.2,1.5.5,1.3-.5.6.3.4-.2.8.3.3v1c0,0-.4.3-.4.3l.2.4v.4c0,0-.6.3-.6.3h.4c0,0,.3.5.3.5l-.5.4.6.6-.6,1.5.6.6v.4l-.6.8.5,1.1-.6.8.4.4-.2.5.3.6v.4c0,0-.6-.4-.6-.4l-.3.4.8.7v.4c0,0,.2.5.2.5l-.3.7-.3.2.3.6v1.5c0,0,0,.3,0,.3v1.6c0,0-.6.3-.6.3l.6.5v.5l-.3.4v.3c0,0-.3.5-.3.5l.4.6v.3l-.3.3-.7-.3-.2.3h.5c0,0,.6,1.4.6,1.4l-.2.8-.3-.4-.3.3ZM263.3,116.7l-.3.2v-.4c0,0,.4,0,.4,0v.3ZM263,118.6l.4-.3-.2.6-.2-.3ZM263.3,122.9h-.4c0,0,.2-.3.2-.3l.3.2h0ZM263.3,109.9h-.3c0,0,0-.5,0-.5l.5.2-.2.3ZM263.3,121.3l-.2-.3h.2c0,0,0,.3,0,.3ZM263.6,107.1h-.4c0,0,0-.4,0-.4l.2-.3h.6v.6h-.3ZM263.6,108.6l.3.2v.3h-.6v-.3c0,0,.4-.2.4-.2ZM263.3,112.3h-.2c0,0,0-.4,0-.4v.4ZM263.4,115l.4.4h-.2c0,0-.5-.2-.5-.2l.3-.2ZM265.4,121.6l.3.2h1.1c0,0,.3.2.3.2v.4c0,0-.4,0-.4,0l-.7-.3-.4.2v.5c0,0-.5.2-.5.2h-.4c0,0-.7.2-.7.2l-.3-.2.4-.5h-.5c0,0-.5-.6-.5-.6l.2-.4h.6c0,0,.6.2.6.2l.6-.3h.3ZM264.1,117.8h-.4l-.5-.5h.4c0,0,.6.2.6.2l-.2.3ZM265.5,120.4l-.8-.2h-.4c0,0,.2.5.2.5h1.5l.3.2v.4c0,0-.3,0-.3,0l-.8-.2-.3.3-.9-.4v-.5c0,0-.5-.4-.5-.4l-.2-.4v-.4c0,0,1.1.2,1.1.2l.6-.3.7.6-.2.5ZM263.9,57.8h.3c0,0,0-.5,0-.5h-.3l-.3.3.2.2ZM263.9,115.3h0c0,0,.3.2.3.2l-.2-.2ZM264.3,59.2h-.2v.4c0,0,.2.2.2.2v-.6ZM264.4,98.7h-.2l-.2.3v.2c0,0,.8,0,.8,0l-.3-.3-.2-.3ZM264.4,110.4l-.4-.2v-.5l.6-.3.2.2v.7c0,0,0,.2,0,.2l-.3-.2ZM264.3,58.6v.3l.6-.2v-.4h-.4c0,0-.3.3-.3.3ZM264.8,56.8h.6c0,0-.3-.3-.3-.3h-.7v.2c0,0,.5,0,.5,0ZM264.4,62.6h.3c0,0-.3-.2-.3-.2v.2ZM264.6,122.5v-.4c0,0-.2,0-.2,0v.3c0,0,.2,0,.2,0ZM264.7,94l.2-.3-.3-.2-.2.3.3.2ZM264.8,62h.3c0,0,0-.3,0-.3l-.4-.4-.2.4.3.3ZM264.9,114.2h.4c0,0,.2-.4.2-.4h-.5c0,0-.4,0-.4,0l.3.3ZM265.1,102.3v-.3h-.3v.3c0,0,.3,0,.3,0ZM265.1,105.6l.2-.3h-.6c0,0,0,0,0,0l.4.2ZM264.7,106.4h.3c0,0,.3,0,.3,0l-.2-.4h-.4v.5ZM265.1,104.2l.2-.3-.5.2h.3ZM265,100.1v-.2c0,0,0,.5,0,.5v-.3ZM265.2,115l.5.4-.3.6.7.5h.4c0,0-.6-1.1-.6-1.1l.4-.4,1.1.2v-.5c0,0-.8-.4-.8-.4l-.9.4-.3-.3h-.5v.4l.3.2ZM265.4,57.8h.9l-.3-.2h-.3c0,0-.5-.3-.5-.3l-.3.3.4.2ZM265.4,107.4h-.3v.2c0,0,.3-.2.3-.2ZM265.2,122.6h-.2c0,0,0,0,0,0h.2ZM265.3,59.7h.2c0,0-.2-.4-.2-.4l-.2.2.2.2ZM265.7,54.1v.3h-.4v-.3h.4ZM265.8,62.8l-.2-.3h-.2c0,0,0,.4,0,.4h.3ZM265.8,94.3l.6-.5-.2-.2-.6.4.3.3ZM265.6,97.1v-.3c0,0,0,.2,0,.2h0ZM265.8,101.2l.2-.3h-.3c0,0-.2,0-.2,0l.3.2ZM265.7,102.4v.2c0,0,.5,0,.5,0l.2-.3-.3.2h-.4ZM266.1,104.9l-.3-.2-.2.3.5.5h.6c0,0,0-.3,0-.3h-.4c0,0-.2-.3-.2-.3ZM267,106.2l-.2-.3h-.6l-.5.6.6-.3h.4l.7.4.6-.3.2-.3h-.5c0,0-.4.2-.4.2h-.4ZM265.9,58.7h.4c0,0-.3-.4-.3-.4l-.3.2.2.2ZM267.1,120.2l-.4.3-.8-.6.3-.2,1.1.2-.2.3ZM266.3,101.5l.2-.2h-.5c0,0,.3.2.3.2ZM266.1,99l.2.3h.3l.5-.5h-.3c0,0-.2,0-.2,0h-.5ZM267,113.5l-.4.2-.3-.2-.2-.5.3-.3h.5c0,0,.3.4.3.4l-.2.4ZM266.6,98.2h.3c0,0,.3,0,.3,0l-.6-.4-.2.2.3.3ZM266.5,63.3l.3.2h.3c0,0,.2-.5.2-.5l-.3-.4h-.4l-.2.2v.5ZM267.1,54.9l-.4-.2-.3.2h.6ZM266.7,96.2h.3c0,0,.3,0,.3,0l-.7-.2.2.3ZM266.5,120.9h.4c0,0,0,0,0,0h-.4ZM267,55.6l-.2-.2-.2.3h.4ZM266.7,56.8l.2-.2h-.2v.2ZM268,121.2l-.6.2-.4-.3v-.2c0,0,1.2,0,1.2,0l-.2.2ZM267.1,101.2h.3c0,0-.2-.4-.2-.4l-.3.2.2.2ZM267.2,105.3l.4.2h.6c0,0,.2-.4.2-.4l-.6.2-.6-.4-.3.2.3.2ZM267.3,96.9h-.3c0,0,.3.3.3.3l.4-.2h-.4ZM267.5,103.6h.3l-.5-.6-.3.2.5.5ZM267.6,94l.7.2-.2-.3-.6-.3-.3.2.4.2ZM267.6,54.3l-.3.4h.4c0,0,0-.2,0-.2l-.2-.2ZM267.5,55.7h-.2v.3c0,0,.2-.3.2-.3ZM267.3,62.1l.3.2.4-.2-.6-.4v.4ZM267.8,96.1l.2-.2-.2-.3h-.3v.4h.3ZM267.8,99.2v-.2l-.3.2h.3ZM267.7,91.7h0c0,0,0,0,0,0h0ZM268,101.4l-.4-.3v.2h.4ZM268.3,122.5h-.3l-.4-.6.2-.2.7.2v.5c0,0-.3,0-.3,0ZM268.1,98l-.4-.2v.3c0,0,.4,0,.4,0ZM267.9,53.8l.5-.2-.6-.2v.4ZM267.9,63.1l.6.6.3-.7-.6-.5-.4.2v.5ZM268.4,90.7v-.2h-.4c0,0,.4.2.4.2ZM268.3,98.1h-.3l.3.2v-.2ZM268.5,109.7h.3c0,0,.2.5.2.5l-.2.4h-.3l-.4-.5.4-.4ZM268.9,117.2l-.6-.2v-.3c0,0,.3-.2.3-.2l.4.2v.5ZM268.4,121.1l.2-.3.3.3-.2.3-.3-.3ZM268.9,62l.3-.4-.3-.2h-.3c0,0,.3.6.3.6ZM268.6,62.2h0c0,0,.2,0,.2,0h-.2ZM269.1,92l.3-.2-.3-.3-.2.3.2.2ZM269.4,62.8v-.4l-.4.2v.5l.4-.3ZM269.6,63.5v-.5h.3c0,0,0-.4,0-.4h-.4l-.3.6.3.2ZM270.8,61.6l-.4-.2-.4.5.4.3.4-.6ZM270.6,62.5l-.2-.3v.3h.2ZM271.4,59.7l-.3-.2v.3h.3ZM272.9,59.8l-.2-.3-.2.3h.4Z"/>
    </g>
  </g>
  <g id="Layer_2" class="st4">
    <g>
      <path class="st0" d="M164.2,106.3v-2.4c-2.8,1.1-5.6,2.2-8.5,2.7-9.2,1.6-28.6.9-29.4-11.8s1.7-9.8,7.2-12.4,18.8-3.6,25.6-2.1,3.3,1,4.9,1.5v-3c0-.2-.5-1.3-.6-1.6-2.5-4.8-12.9-5-17.4-3.9s-4.8,1.8-5.4,4.5h-13.6v-2.6c0-1.4,2.1-4.1,3.2-5,7.2-5.8,27.4-5.7,35.9-3.1s11.3,6.6,11.7,14.6-.3,16,0,23.9c0,.2-.1.6-.3.6h-13.3Z"/>
      <path class="st3" d="M147.8,87.1c3.4-.3,10.5-.4,13.4,1.1s3.6,7.8-.3,9.7-12.4,1.7-16.1.6-4.7-3.2-4.3-6.6,4.3-4.5,7.2-4.7Z"/>
    </g>
    <g>
      <path class="st2" d="M218,93.6c-1.2.5-2.3,1-3.5,1.3-7.5,2.2-25,2.2-30.6-3.9-4.1-4.4-4-15.7-.2-20.3s12.6-5.2,18-5.4,11.5.6,16.1,3.8v-2.4h13.3v30.5c-.5,8.4-6.2,13-14,14.9s-30.8,2.1-35.3-7.7-.8-2.2-.8-2.4v-3.9h13.4c-.8,7.5,9.3,8.1,14.6,7.6s8.8-2.8,8.8-7.1v-5Z"/>
      <path class="st3" d="M202.2,73.5c4.9-.4,14.2-.5,15.7,5.6s-4.2,9.4-10.5,9.6-13.1-.5-12.6-8.4,3-6.4,7.4-6.7Z"/>
    </g>
    <polygon class="st2" points="75.9 61 89.9 88.7 103.2 61 122.1 61 122.1 105.9 108.9 105.9 108.9 75.8 94.7 105.9 85 105.9 70.1 76.4 70.1 105.9 56.9 105.9 56.9 61 75.9 61"/>
    <rect class="st2" x="290.5" y="66.8" width="13.2" height="39.1"/>
    <rect class="st2" x="290.5" y="58.4" width="13.2" height="5.1"/>
    <g>
      <path class="st0" d="M272.2,93.6c-1.9.8-3.8,1.5-5.8,1.9-6.7,1.4-19.2,1-25.3-2.2s-6.3-9.1-5.9-15.2c.8-11.2,11.4-12.6,20.6-12.8s11.5.6,16.3,3.8v-2.4h13.3v30.4c-.9,15.1-17.2,16.6-29.1,16s-21.1-2.9-21.1-12.4v-2.6h13.6c-.9,7.4,9.2,8,14.4,7.6s9-2.8,9-7.5v-4.6Z"/>
      <path class="st3" d="M256.2,73.5c5.1-.5,15.3-.5,16,6.4.7,7.5-4.4,8.6-10.6,8.8s-13.3-.6-12.6-8.8,3.1-6,7.2-6.4Z"/>
    </g>
  </g>
</svg>